<?xml version="1.0" standalone="no"?>
<!DOCTYPE svg PUBLIC "-//W3C//DTD SVG 1.1//EN" "http://www.w3.org/Graphics/SVG/1.1/DTD/svg11.dtd" >
<svg xmlns="http://www.w3.org/2000/svg">
<defs>
  <font id="orca-icons" horiz-adv-x="1638.4">
    <font-face font-family="orca-icons"
      units-per-em="1024" ascent="1024"
      descent="0" />
    <missing-glyph horiz-adv-x="0" />
    <glyph glyph-name="schedule"
      unicode="&#xEA22;"
      horiz-adv-x="1024" d="M256 938.6666666666666L256 853.3333333333334L768 853.3333333333334L768 938.6666666666666L853.3333333333333 938.6666666666666L853.3333333333333 853.3333333333334C898.031744 853.3333333333334 934.9901738666669 821.9936738133333 938.4086656 782.5208093866667L938.6666666666666 776.5417813333333L938.6666666666666 162.1248853333334C938.6666666666666 121.8967168000002 903.836736 88.6414293333335 859.9768191999999 85.5654784000001L853.3333333333333 85.3333333333334L170.6666666666667 85.3333333333334C125.9276189866667 85.3333333333334 89.0059562666667 116.6729941333333 85.5910562133333 156.145856L85.3333333333333 162.1248853333334L85.3333333333333 776.5417813333333C85.3333333333333 816.7699502933333 120.1245653333333 850.0252369066667 164.0176512 853.1011865600001L170.6666666666667 853.3333333333334L170.6666666666667 938.6666666666666L256 938.6666666666666zM833.8133333333333 639.5349333333334L190.1866666666667 639.5349333333334C180.59140736 639.5349333333334 172.6480328533334 632.9244629333334 171.0012987733333 624.2036578133334L170.688 620.8432230400001L170.688 188.8524970666667C170.688 179.7107029333333 177.5652347733333 172.0844757333333 186.6749482666667 170.5026218666667L190.1866666666667 170.2016000000001L833.8133333333333 170.2016000000001C843.4085930666666 170.2016000000001 851.3856810666666 176.8120704000001 853.0399061333333 185.5042133333334L853.3546666666666 188.8524970666667L853.3546666666666 620.8432230400001C853.3546666666666 631.1685563733333 844.608 639.5349333333334 833.8133333333333 639.5349333333334z" />
    <glyph glyph-name="send-money-usd"
      unicode="&#x24;"
      horiz-adv-x="1024" d="M140.8 669.8666666666668C143.6444444444444 685.5111111111112 157.8666666666667 696.8888888888889 173.5111111111111 696.8888888888889H577.4222222222221L567.4666666666665 654.2222222222222C564.622222222222 638.5777777777778 550.3999999999999 628.6222222222223 534.7555555555555 628.6222222222223H132.2666666666667L140.8 669.8666666666668zM0 473.6H502.0444444444444C517.6888888888889 473.6 530.4888888888888 484.9777777777778 534.7555555555555 499.1999999999999L544.711111111111 541.8666666666666H41.2444444444444C25.6 541.8666666666666 11.3777777777778 530.4888888888888 8.5333333333333 514.8444444444444L0 473.6zM510.5777777777777 393.9555555555557H211.9111111111111C196.2666666666667 393.9555555555557 182.0444444444444 382.5777777777779 179.2 366.9333333333334L170.6666666666666 324.2666666666668H469.3333333333333C484.9777777777778 324.2666666666668 497.7777777777778 335.6444444444445 502.0444444444444 349.8666666666667L510.5777777777777 393.9555555555557zM898.8444444444444 719.6444444444445L860.4444444444443 551.8222222222222C877.5111111111111 546.1333333333333 896 539.0222222222222 913.0666666666666 530.4888888888888C932.9777777777778 520.5333333333333 950.0444444444444 507.7333333333333 962.8444444444444 490.6666666666667C975.6444444444446 473.6 982.7555555555556 455.1111111111111 982.7555555555556 433.7777777777779C982.7555555555556 413.8666666666667 979.9111111111112 392.5333333333334 972.8 372.6222222222223C960 331.3777777777779 935.8222222222224 300.088888888889 898.8444444444444 278.7555555555556C866.1333333333333 258.8444444444446 830.5777777777778 248.8888888888889 793.6 246.0444444444446L780.8000000000001 189.1555555555557C777.9555555555555 173.5111111111112 763.7333333333333 163.5555555555557 749.5111111111111 163.5555555555557L725.3333333333333 163.5555555555557L743.8222222222222 247.4666666666668C716.8 251.7333333333335 686.9333333333333 260.2666666666668 662.7555555555555 271.6444444444446C638.5777777777777 283.0222222222224 620.0888888888887 300.0888888888891 604.4444444444443 321.4222222222224L628.6222222222221 348.4444444444446C639.9999999999999 361.2444444444446 659.911111111111 362.6666666666669 674.1333333333333 352.7111111111112C688.3555555555555 341.3333333333335 705.4222222222222 329.9555555555557 715.3777777777777 325.688888888889C728.1777777777777 320.0000000000001 743.8222222222222 314.3111111111113 758.0444444444444 312.8888888888891L799.2888888888888 494.9333333333335C759.4666666666666 507.7333333333335 726.7555555555555 527.6444444444446 702.5777777777777 553.2444444444446C676.9777777777778 578.8444444444447 669.8666666666667 614.4000000000002 681.2444444444444 661.3333333333335C691.1999999999999 704.0000000000002 715.3777777777777 735.2888888888891 750.9333333333333 758.0444444444447C786.4888888888888 780.8000000000002 824.8888888888888 790.7555555555558 866.1333333333332 790.7555555555558L876.0888888888888 836.2666666666669C878.9333333333334 851.9111111111113 893.1555555555556 861.8666666666669 907.3777777777779 861.8666666666669L931.5555555555557 861.8666666666669L914.4888888888888 787.9111111111114C935.822222222222 783.6444444444446 957.1555555555555 776.5333333333335 974.2222222222222 766.577777777778C992.711111111111 756.6222222222225 1008.3555555555556 742.4000000000003 1024 723.9111111111114L995.5555555555557 699.7333333333336C984.1777777777778 689.777777777778 968.5333333333332 688.3555555555558 955.7333333333333 696.8888888888891C952.8888888888888 698.3111111111114 950.0444444444444 701.1555555555558 947.2 702.577777777778C932.9777777777776 709.6888888888889 914.4888888888888 716.8 898.8444444444444 719.6444444444445zM814.9333333333333 564.6222222222223L850.4888888888888 725.3333333333334C827.7333333333332 723.911111111111 804.9777777777776 718.2222222222222 786.4888888888888 708.2666666666667C768 696.8888888888889 755.1999999999999 681.2444444444445 749.5111111111111 658.4888888888889C742.3999999999999 635.7333333333333 746.6666666666665 617.2444444444445 759.4666666666666 603.0222222222224C773.6888888888889 588.8 795.0222222222221 574.5777777777778 814.9333333333333 564.6222222222223zM844.8 475.0222222222222L807.8222222222221 308.6222222222223C832 311.4666666666668 847.6444444444443 315.7333333333335 866.1333333333332 328.5333333333334C886.0444444444444 341.3333333333334 898.8444444444443 358.4000000000001 905.9555555555554 381.1555555555557C911.6444444444442 408.1777777777778 908.8 428.088888888889 895.9999999999999 442.3111111111112C881.7777777777777 455.1111111111111 867.5555555555555 466.4888888888888 844.8 475.0222222222222z" />
    <glyph glyph-name="question"
      unicode="&#x3F;"
      horiz-adv-x="1024" d="M512 17.0666666666666C234.6666666666667 17.0666666666666 12.8 243.2000000000001 12.8 516.2666666666667S238.9333333333333 1015.4666666666666 512 1015.4666666666666S1011.2 789.3333333333334 1011.2 516.2666666666668S789.3333333333333 17.0666666666666 512 17.0666666666666zM512 930.1333333333334C281.6 930.1333333333334 98.1333333333334 742.4 98.1333333333334 516.2666666666668S285.8666666666667 102.4000000000001 512 102.4000000000001S925.8666666666666 290.1333333333336 925.8666666666666 516.2666666666668S742.3999999999999 930.1333333333334 512 930.1333333333334zM358.4 729.6C430.9333333333333 789.3333333333334 571.7333333333333 819.2 640 733.8666666666667C674.1333333333333 695.4666666666667 678.4 631.4666666666667 652.8 584.5333333333333C640 558.9333333333334 622.9333333333334 541.8666666666667 601.6 524.8C584.5333333333333 512 554.6666666666667 499.2 546.1333333333333 473.6L541.8666666666666 426.6666666666668H460.8L452.2666666666667 486.4000000000001C439.4666666666666 563.2 571.7333333333332 571.7333333333333 558.9333333333333 652.8000000000001C554.6666666666666 691.2 516.2666666666667 699.7333333333333 486.4 695.4666666666667C460.8 691.2 409.6 648.5333333333333 392.5333333333333 682.6666666666667L358.4 729.6zM430.9333333333333 285.8666666666667C430.9333333333333 371.2000000000001 567.4666666666667 371.2000000000001 567.4666666666667 285.8666666666667C567.4666666666667 200.5333333333333 430.9333333333333 200.5333333333333 430.9333333333333 285.8666666666667z" />
    <glyph glyph-name="send-money-gbp"
      unicode="&#xA3;"
      horiz-adv-x="1024" d="M1024 698.3111111111111L992.711111111111 684.088888888889C977.0666666666666 676.9777777777779 960 684.088888888889 952.8888888888888 698.3111111111111C951.4666666666666 702.5777777777778 948.6222222222221 705.4222222222222 948.6222222222221 706.8444444444444C944.3555555555556 712.5333333333333 940.088888888889 718.2222222222223 932.9777777777778 722.488888888889C927.2888888888888 726.7555555555557 918.7555555555556 731.0222222222224 910.2222222222224 732.4444444444446C901.688888888889 735.288888888889 890.3111111111112 736.7111111111112 876.0888888888891 736.7111111111112C859.0222222222224 736.7111111111112 843.377777777778 733.8666666666668 827.7333333333336 728.1777777777779C813.5111111111113 722.488888888889 799.2888888888891 713.9555555555556 787.9111111111114 704C776.5333333333336 694.0444444444445 766.577777777778 681.2444444444445 758.0444444444447 667.0222222222224C749.5111111111113 652.8000000000001 743.8222222222224 635.7333333333333 739.5555555555558 618.6666666666667L716.8000000000003 517.688888888889H891.7333333333336L887.4666666666669 496.3555555555556C884.6222222222224 482.1333333333334 871.8222222222224 472.1777777777778 857.6000000000003 472.1777777777778H704L681.2444444444444 369.7777777777779C676.9777777777778 349.8666666666667 669.8666666666667 332.8000000000001 661.3333333333333 320C655.6444444444444 310.0444444444445 647.1111111111111 301.5111111111112 638.5777777777777 292.9777777777779H944.3555555555556L935.8222222222224 253.1555555555557C932.9777777777778 238.9333333333334 920.177777777778 228.9777777777779 905.9555555555556 228.9777777777779H576H520.5333333333333L530.4888888888889 273.0666666666667C540.4444444444446 275.9111111111113 548.9777777777778 278.7555555555556 557.5111111111112 283.0222222222224C566.0444444444445 287.288888888889 573.1555555555556 291.5555555555557 578.8444444444444 298.6666666666669C584.5333333333333 304.3555555555557 590.2222222222222 312.8888888888891 594.4888888888889 321.4222222222224C598.7555555555556 329.9555555555558 603.0222222222222 339.9111111111113 605.8666666666667 352.7111111111114L632.8888888888888 470.7555555555557L632.8888888888888 473.6000000000001H568.8888888888889L573.1555555555555 494.9333333333335C576 509.1555555555558 588.8 519.1111111111113 603.0222222222221 519.1111111111113H642.8444444444443L665.5999999999999 620.0888888888892C671.2888888888888 644.2666666666669 681.2444444444444 667.0222222222225 694.0444444444444 689.777777777778C706.8444444444443 711.1111111111113 722.4888888888888 729.6000000000003 740.9777777777776 745.2444444444446C759.4666666666665 760.8888888888891 780.7999999999998 773.6888888888891 804.9777777777776 782.2222222222224C829.1555555555555 790.7555555555558 856.1777777777777 796.4444444444447 884.6222222222221 796.4444444444447C905.9555555555554 796.4444444444447 925.8666666666666 793.6000000000003 941.511111111111 789.3333333333335C957.1555555555552 785.0666666666668 969.9555555555552 777.9555555555557 981.333333333333 769.4222222222224C992.7111111111108 760.8888888888891 1001.2444444444442 750.9333333333336 1006.933333333333 738.1333333333337C1015.4666666666666 725.3333333333334 1021.1555555555555 712.5333333333333 1024 698.3111111111111zM122.3111111111111 614.4000000000001H496.3555555555555C510.5777777777777 614.4000000000001 523.3777777777777 624.3555555555556 526.2222222222222 638.5777777777778L534.7555555555556 678.4000000000001H160.7111111111111C146.4888888888889 678.4000000000001 133.6888888888889 668.4444444444445 130.8444444444445 654.2222222222222L122.3111111111111 614.4000000000001zM0 472.1777777777778H465.0666666666667C479.2888888888889 472.1777777777778 492.0888888888889 482.1333333333334 494.9333333333334 496.3555555555556L503.4666666666667 536.1777777777779H38.4C24.1777777777778 536.1777777777779 11.3777777777778 526.2222222222222 8.5333333333333 512L0 472.1777777777778zM473.5999999999999 398.2222222222223H196.2666666666667C182.0444444444445 398.2222222222223 169.2444444444445 388.2666666666667 166.4 374.0444444444445L157.8666666666667 334.2222222222223H433.7777777777778C448 334.2222222222223 460.8 344.1777777777778 463.6444444444444 358.4000000000001L473.5999999999999 398.2222222222223z" />
    <glyph glyph-name="x"
      unicode="&#xD7;"
      horiz-adv-x="1024" d="M584.5162666666666 512L838.3146666666667 258.1973333333334C858.3381333333333 238.1738666666668 858.3381333333333 205.7088000000001 838.3146666666667 185.6853333333334C818.2911999999999 165.6618666666667 785.8261333333332 165.6618666666667 765.8026666666666 185.6853333333334L512 439.4837333333334L258.1994666666667 185.6853333333334C238.1751466666667 165.6618666666667 205.7092266666667 165.6618666666667 185.6849066666667 185.6853333333334C165.6605866666667 205.7088000000001 165.6605866666667 238.1738666666668 185.6849066666667 258.1973333333334L439.4837333333333 512L185.6849066666667 765.8005333333333C165.6605866666667 785.8248533333333 165.6605866666667 818.2907733333334 185.6849066666667 838.3150933333334C205.7092266666667 858.3394133333334 238.1751466666667 858.3394133333334 258.1994666666667 838.3150933333334L512 584.5162666666668L765.8026666666666 838.3150933333334C785.8261333333332 858.3394133333334 818.2911999999999 858.3394133333334 838.3146666666667 838.3150933333334C858.3381333333333 818.2907733333334 858.3381333333333 785.8248533333333 838.3146666666667 765.8005333333333L584.5162666666666 512z" />
    <glyph glyph-name="info"
      unicode="&#x2139;"
      horiz-adv-x="1024" d="M512.0042666666666 938.6666666666666C747.6095999999999 938.6666666666666 938.6709333333334 747.648 938.6709333333334 512C938.6709333333334 276.3946666666668 747.6095999999999 85.3333333333334 512.0042666666666 85.3333333333334C276.3989333333334 85.3333333333334 85.3376 276.3946666666668 85.3376 512C85.3376 747.648 276.3989333333334 938.6666666666666 512.0042666666666 938.6666666666666zM512.0042666666666 853.3333333333334C323.5029333333333 853.3333333333334 170.6709333333333 700.5013333333334 170.6709333333333 512C170.6709333333333 323.4986666666668 323.5029333333333 170.6666666666668 512.0042666666666 170.6666666666668C700.5056 170.6666666666668 853.3376 323.4986666666668 853.3376 512C853.3376 700.5013333333334 700.5056 853.3333333333334 512.0042666666666 853.3333333333334zM512.2944 597.3333333333334C535.8463999999999 597.3333333333334 554.9610666666666 578.2186666666666 554.9610666666666 554.6666666666667L554.9610666666666 298.6666666666668C554.9610666666666 276.7573333333334 538.4795434666667 258.7476480000001 517.2679893333333 256.2866176000001L512.2944 256C488.6997333333334 256 469.6277333333333 275.072 469.6277333333333 298.6666666666668L469.6277333333333 554.6666666666667C469.6277333333333 578.2186666666666 488.6997333333334 597.3333333333334 512.2944 597.3333333333334zM512.0042666666666 768C535.5562666666666 768 554.6709333333333 748.8853333333334 554.6709333333333 725.3333333333334C554.6709333333333 701.7813333333334 535.5562666666666 682.6666666666667 512.0042666666666 682.6666666666667C488.4096 682.6666666666667 469.3376 701.7813333333334 469.3376 725.3333333333334C469.3376 748.8853333333334 488.4096 768 512.0042666666666 768z" />
    <glyph glyph-name="back-arrow"
      unicode="&#x2190;"
      horiz-adv-x="1024" d="M273.0666666666667 469.3333333333334C251.7333333333334 490.6666666666667 251.7333333333334 529.0666666666667 273.0666666666667 554.6666666666667L640 921.6C661.3333333333333 942.9333333333334 695.4666666666667 942.9333333333334 716.8 921.6C738.1333333333333 900.2666666666667 738.1333333333333 866.1333333333333 716.8 844.8L388.2666666666667 512L721.0666666666666 179.2000000000001C742.3999999999999 157.8666666666667 742.3999999999999 123.7333333333334 721.0666666666666 102.4C699.7333333333332 81.0666666666666 665.5999999999999 81.0666666666666 644.2666666666665 102.4L273.0666666666667 469.3333333333334z" />
    <glyph glyph-name="up-arrow"
      unicode="&#x2191;"
      horiz-adv-x="1024" d="M469.3333333333333 733.8666666666667C490.6666666666666 755.2 529.0666666666666 755.2 554.6666666666666 733.8666666666667L921.6 366.9333333333334C942.9333333333334 345.6000000000002 942.9333333333334 311.4666666666667 921.6 290.1333333333335C900.2666666666667 268.8000000000001 866.1333333333333 268.8000000000001 844.8 290.1333333333335L512 618.6666666666667L179.2 285.8666666666667C157.8666666666667 264.5333333333333 123.7333333333334 264.5333333333333 102.4 285.8666666666667C81.0666666666667 307.2000000000001 81.0666666666667 341.3333333333334 102.4 362.6666666666668L469.3333333333333 733.8666666666667z" />
    <glyph glyph-name="forward-arrow"
      unicode="&#x2192;"
      horiz-adv-x="1024" d="M734.3568 470.1908480000001C757.4466688 493.2807125333334 757.4466688 530.7742634666668 734.3568 553.864128L366.18336128 922.0925457066666C344.74276992 943.5881130666666 309.9430404266667 943.5881130666666 288.4474730666667 922.0925457066666C266.9519057066667 900.65195392 266.9519057066667 865.8522244266667 288.4474730666667 844.3566570666667L620.7216682666666 512.0274858666667L288.4474730666667 179.6433408C266.9519057066667 158.147776 266.9519057066667 123.4030208000002 288.4474730666667 101.9074560000001C309.9430404266667 80.4118869333333 344.74276992 80.4118869333333 366.18336128 101.9074560000001L734.3568 470.1908480000001z" />
    <glyph glyph-name="down-arrow"
      unicode="&#x2193;"
      horiz-adv-x="1024" d="M452.2666666666667 290.1333333333335C473.6 268.8000000000001 512 268.8000000000001 537.5999999999999 290.1333333333335L904.5333333333334 657.0666666666667C925.8666666666666 678.4000000000001 925.8666666666666 712.5333333333333 904.5333333333334 733.8666666666667C883.1999999999999 755.2 849.0666666666666 755.2 827.7333333333332 733.8666666666667L494.9333333333332 401.0666666666667L162.1333333333333 733.8666666666667C140.8 755.2 106.6666666666667 755.2 85.3333333333333 733.8666666666667C64 712.5333333333333 64 678.4000000000001 85.3333333333333 657.0666666666667L452.2666666666667 290.1333333333335z" />
    <glyph glyph-name="back-arrow-full"
      unicode="&#x21E6;"
      horiz-adv-x="1024" d="M1024 576L243.2 576L601.6 934.4L512 1024L0 512L512 0L601.6 89.6L243.2 448L1024 448L1024 576" />
    <glyph glyph-name="up-arrow-circle"
      unicode="&#x21EA;"
      horiz-adv-x="1024" d="M725.3333333333333 392.5333333333333L512 605.8666666666667L294.4 392.5333333333333L247.4666666666667 439.4666666666667L512 699.7333333333333L772.2666666666667 439.4666666666667zM512 8.5333333333333C384 8.5333333333333 256 55.4666666666667 157.8666666666666 153.5999999999999C64 247.4666666666666 12.8 375.4666666666666 12.8 507.7333333333333C12.8 640 64 768 157.8666666666666 861.8666666666667C251.7333333333334 960 379.7333333333334 1015.4666666666666 512 1015.4666666666666C644.2666666666667 1015.4666666666666 772.2666666666667 964.2666666666667 866.1333333333333 870.4C960 776.5333333333333 1011.2 648.5333333333333 1011.2 516.2666666666667C1011.2 384 960 256 866.1333333333333 162.1333333333332C768 59.7333333333334 640 8.5333333333333 512 8.5333333333333zM512 930.1333333333334C405.3333333333333 930.1333333333334 298.6666666666667 887.4666666666667 217.6 806.4000000000001C136.5333333333333 729.6 93.8666666666667 622.9333333333334 93.8666666666667 512C93.8666666666667 401.0666666666667 136.5333333333333 294.4 217.6 217.6000000000001C379.7333333333333 55.4666666666667 644.2666666666667 55.4666666666667 806.3999999999999 217.6000000000001C883.1999999999999 294.4000000000001 930.1333333333332 401.0666666666669 930.1333333333332 512.0000000000001C930.1333333333332 622.9333333333334 887.4666666666665 729.6000000000001 806.3999999999999 806.4000000000001C725.3333333333333 887.4666666666667 618.6666666666666 930.1333333333334 512 930.1333333333334z" />
    <glyph glyph-name="filter"
      unicode="&#x2286;"
      horiz-adv-x="1024" d="M864 876.27955232L864 960L160 960L160 876.27955232L448 556.279552L448 123.7925472L576 209.1258816L576 556.279552L864 876.27955232zM384 531.720448L96 851.72044768L96 1024L928 1024L928 851.72044768L640 531.720448L640 174.8741184000001L384 4.2074528000001L384 531.720448z" />
    <glyph glyph-name="plus-circle"
      unicode="&#x2295;"
      horiz-adv-x="1024" d="M469.3333333333333 768H554.6666666666666V256H469.3333333333333zM256 554.6666666666667H768V469.3333333333334H256zM503.4666666666667 21.3333333333334C226.1333333333334 21.3333333333334 0 247.4666666666667 0 524.8000000000001S230.4 1024 503.4666666666667 1024S1006.9333333333334 797.8666666666667 1006.9333333333334 520.5333333333333S780.8 21.3333333333334 503.4666666666667 21.3333333333334zM503.4666666666667 938.6666666666666C273.0666666666667 938.6666666666666 85.3333333333333 750.9333333333334 85.3333333333333 520.5333333333333S273.0666666666667 102.4 503.4666666666667 102.4S921.6 290.1333333333332 921.6 520.5333333333333S733.8666666666666 938.6666666666666 503.4666666666667 938.6666666666666z" />
    <glyph glyph-name="minus-circle"
      unicode="&#x2296;"
      horiz-adv-x="1024" d="M797.8666666666666 456.5333333333333H226.1333333333334V541.8666666666667H795.7333333333332V456.5333333333333zM512 938.6666666666666C277.3333333333333 938.6666666666666 85.3333333333333 746.6666666666667 85.3333333333333 512S277.3333333333333 85.3333333333334 512 85.3333333333334S938.6666666666666 277.3333333333334 938.6666666666666 512S746.6666666666666 938.6666666666666 512 938.6666666666666M512 1024C795.7333333333332 1024 1024 795.7333333333333 1024 512S795.7333333333332 0 512 0S0 228.2666666666668 0 512S228.2666666666667 1024 512 1024L512 1024z" />
    <glyph glyph-name="home"
      unicode="&#x2302;"
      horiz-adv-x="1024" d="M964.2666666666667 456.5333333333333L512 904.5333333333334L59.7333333333333 456.5333333333333L4.2666666666667 512L512 1019.7333333333333L1019.7333333333332 512L964.2666666666667 456.5333333333333zM469.3333333333333 341.3333333333334L469.3333333333333 0L128 0L128 384L213.3333333333333 384L213.3333333333333 85.3333333333334L384 85.3333333333334L384 426.6666666666668L640 426.6666666666668L640 85.3333333333334L810.6666666666666 85.3333333333334L810.6666666666666 384L896 384L896 0L554.6666666666666 0L554.6666666666666 341.3333333333334" />
    <glyph glyph-name="location"
      unicode="&#x2316;"
      horiz-adv-x="1024" d="M533.3333333333333 12.8000000000001L516.2666666666667 21.3333333333334C298.6666666666667 110.9333333333334 145.0666666666667 413.8666666666667 145.0666666666667 627.2C145.0666666666667 840.5333333333333 320 1015.4666666666666 533.3333333333333 1015.4666666666666C746.6666666666666 1015.4666666666666 921.6 840.5333333333333 921.6 627.2C921.6 435.2000000000001 772.2666666666667 93.8666666666667 546.1333333333333 17.0666666666666L533.3333333333333 12.8000000000001zM533.3333333333333 930.1333333333334C366.9333333333333 930.1333333333334 230.4 793.6 230.4 627.2C230.4 448 362.6666666666667 187.7333333333334 533.3333333333333 102.4C695.4666666666667 170.6666666666668 836.2666666666667 448 836.2666666666667 627.2C836.2666666666667 793.6 699.7333333333332 930.1333333333334 533.3333333333333 930.1333333333334zM533.3333333333333 452.2666666666667C426.6666666666667 452.2666666666667 341.3333333333333 537.6 341.3333333333333 644.2666666666667S426.6666666666667 836.2666666666667 533.3333333333333 836.2666666666667S725.3333333333333 750.9333333333334 725.3333333333333 644.2666666666667S640 452.2666666666667 533.3333333333333 452.2666666666667zM533.3333333333333 750.9333333333334C473.6 750.9333333333334 426.6666666666667 704 426.6666666666667 644.2666666666667C426.6666666666667 584.5333333333333 473.6 537.6 533.3333333333333 537.6C593.0666666666666 537.6 640 584.5333333333333 640 644.2666666666667C640 704 593.0666666666666 750.9333333333334 533.3333333333333 750.9333333333334z" />
    <glyph glyph-name="hourglass"
      unicode="&#x231B;"
      horiz-adv-x="665.6" d="M51.2 716.8C22.9230208 716.8 0 739.7230208 0 768L0 972.8C0 1001.0769792 22.9230208 1024 51.2 1024L614.4000000000001 1024C642.67697664 1024 665.6 1001.0769792 665.6 972.8L665.6 768C665.6 739.7230208 642.67697664 716.8 614.4000000000001 716.8L614.4000000000001 614.4C614.4000000000001 597.28235008 605.84564736 581.297088 591.6035481600001 571.8009559039999L501.9021127680001 511.99118848L591.59775232 452.2029056C605.84319488 442.70734336 614.4000000000001 426.72011776 614.4000000000001 409.5999999999999L614.4000000000001 307.2C642.67697664 307.2 665.6 284.27697664 665.6 256L665.6 51.1999999999999C665.6 22.9230233599999 642.67697664 0 614.4000000000001 0L51.2 0C22.9230208 0 0 22.9230233599999 0 51.1999999999999L0 256C0 284.27697664 22.9230208 307.2 51.2 307.2L51.2 409.5999999999999C51.2 426.71764992 59.754353664 442.7029145600001 73.996453888 452.1990451200001L163.697887232 512.0088089599999L74.002246656 571.7970938880001C59.756803072 581.292657664 51.2 597.279883264 51.2 614.4L51.2 716.8zM153.6 716.8L153.6 641.803647488L284.397753344 554.617990656C314.7982648320001 534.35396864 314.8013015040001 489.6841983999999 284.403546112 469.4160383999999L153.6 382.200832L153.6 307.2L512 307.2L512 382.196352L381.202246656 469.3820108799999C350.8017351680001 489.6460339199999 350.7986984960001 534.31580416 381.196453888 554.583959552L512 641.7991695359999L512 716.8L153.6 716.8zM563.2 819.2L563.2 921.6L102.4 921.6L102.4 819.2L563.2 819.2zM102.4 102.4L563.2 102.4L563.2 204.8L102.4 204.8L102.4 102.4z" />
    <glyph glyph-name="backspace"
      unicode="&#x232B;"
      horiz-adv-x="1638.4" d="M1474.5600000000002 0L587.0933333333332 0L566.6133333333333 20.48C471.04 116.0533333333333 95.5733333333333 457.3866666666667 88.7466666666667 464.2133333333334L34.1333333333333 512L88.7466666666667 559.7866666666666C88.7466666666667 559.7866666666666 341.3333333333333 798.72 566.6133333333333 1003.52L593.92 1024L1481.3866666666665 1024C1563.3066666666666 1024 1638.4 907.9466666666668 1638.4 832.8533333333334L1638.4 150.1866666666666C1638.4 75.0933333333334 1556.48 0 1474.5600000000002 0zM641.7066666666667 136.5333333333333L1474.5600000000002 136.5333333333333C1481.3866666666665 136.5333333333333 1495.04 150.1866666666666 1501.8666666666666 157.0133333333334L1501.8666666666666 832.8533333333334C1501.8666666666666 846.5066666666667 1481.3866666666665 873.8133333333333 1467.7333333333333 887.4666666666667L641.7066666666667 887.4666666666667C484.6933333333333 744.1066666666667 320.8533333333334 593.9200000000001 238.9333333333334 512C341.3333333333333 423.2533333333334 552.9599999999999 225.2800000000001 641.7066666666667 136.5333333333333zM1043.2068266666665 591.8931626666667L869.4606506666667 765.6393386666666L772.9179306666666 669.0966186666667L946.6641066666668 495.3504426666666L772.911104 321.59744L869.453824 225.05472L1043.2068266666665 398.8077226666667L1217.0144426666666 225.0001066666666L1313.5571626666667 321.5428266666668L1139.7495466666667 495.3504426666666L1313.550336 669.1512319999999L1217.0076159999999 765.693952L1043.2068266666665 591.8931626666667z" />
    <glyph glyph-name="stopwatch"
      unicode="&#x23F1;"
      horiz-adv-x="1024" d="M776.5333333333333 797.8666666666667L827.7333333333332 874.6666666666667L759.4666666666665 925.8666666666666L703.9999999999998 844.8000000000001C657.0666666666665 866.1333333333334 605.8666666666664 883.2 554.6666666666665 887.4666666666667V942.9333333333334H631.4666666666665V1028.2666666666667H392.5333333333333V942.9333333333334H469.3333333333333V887.4666666666667C247.4666666666667 861.8666666666667 72.5333333333333 674.1333333333334 72.5333333333333 448C72.5333333333333 204.8000000000001 268.8 8.5333333333333 512 8.5333333333333S951.4666666666666 204.8 951.4666666666666 448C951.4666666666666 588.8000000000001 883.1999999999999 716.8 776.5333333333333 797.8666666666667zM512 89.6000000000001C315.7333333333334 89.6000000000001 157.8666666666666 247.4666666666667 157.8666666666666 443.7333333333335S315.7333333333334 802.1333333333333 512 802.1333333333333S866.1333333333333 644.2666666666667 866.1333333333333 448S708.2666666666667 89.6000000000001 512 89.6000000000001zM512 563.2C490.6666666666666 563.2 473.6 558.9333333333334 456.5333333333333 550.4L366.9333333333333 631.4666666666667L311.4666666666667 567.4666666666667L405.3333333333333 486.4000000000001C401.0666666666667 473.6 396.8 460.8000000000001 396.8 448C396.8 384 448 332.8000000000001 512 332.8000000000001S627.1999999999999 384 627.1999999999999 448S576 563.2 512 563.2z" />
    <glyph glyph-name="eye"
      unicode="&#x23FF;"
      horiz-adv-x="1024" d="M1024 556.13793088L944.9664448 467.86206912C944.9664448 467.86206912 807.5167808 591.44827584 628.83221504 633.82068992C680.37584 594.97931008 714.7382528 534.95172416 714.7382528 464.33103424C714.7382528 351.33793088 625.39597312 256 512 256C402.04026816 256 309.26174528 347.80689664 309.26174528 464.33103424C309.26174528 534.95172416 340.18791936 598.51034496 391.73154368 637.35172416C213.04697984 591.44827584 75.5973152 467.86206912 75.5973152 467.86206912L0 556.13793088C10.308724864 563.2 230.22818816 768 512 768C793.7718144 768 1013.6912768 563.2 1024 556.13793088zM512 376.05517248C560.1073824 376.05517248 601.3422816 414.89655168 601.3422816 467.86206912C601.3422816 517.29655168 560.1073824 559.66896576 512 559.66896576C463.8926176 559.66896576 422.6577184 517.29655168 422.6577184 467.86206912C422.6577184 418.42758592 463.8926176 376.05517248 512 376.05517248z" />
    <glyph glyph-name="eye-crossed"
      unicode="&#x2400;"
      horiz-adv-x="1024" d="M842.5465472 982.200745088L843.0933312 983.04L942.08 918.18666688L779.8882752 669.2412288C918.6726656 610.28348224 1010.6158336 527.52497088 1017.1733312 523.1533056000001L938.6666688 437.8199724800001C938.6666688 437.8199724800001 846.5103552 518.4567423999999 715.1965696 569.94698752L687.0749504 526.78357056C701.6562944 499.30746752 709.9733312 468.10460928 709.9733312 434.4066387200001C709.9733312 325.1799744 621.22666688 233.0199744 508.58666688 233.0199744C504.34478976 233.0199744 500.1286528 233.1538176 495.94265408 233.4177152L354.98666688 17.0666688L259.950768 79.3315648L846.5066688 979.626666688L842.5465472 982.200745088zM582.42229824 723.44259776L331.56700096 338.4088832C316.0696928 366.817696 307.2 399.4623910400001 307.2 434.4066387200001C307.2 502.6733056 337.92 564.1133056 389.12 601.6599724800001C211.62666688 557.2866387199999 75.09333312 437.8199724800001 75.09333312 437.8199724800001L0 523.1533056000001C10.24 529.97997248 228.69333312 727.9533056 508.58666688 727.9533056C533.7298176 727.9533056 558.37716992 726.35573184 582.4223264 723.4426585599999z" />
    <glyph glyph-name="x-circle"
      unicode="&#x24E7;"
      horiz-adv-x="1024" d="M290.7306666666667 361.3440000000001L652.7573333333332 723.4133333333334L713.1306666666666 663.04L351.0613333333333 301.0133333333333zM290.7306666666667 663.04L351.0613333333333 723.4133333333334L713.1306666666666 361.3440000000001L652.7573333333332 301.0133333333333zM503.4666666666667 21.3333333333334C375.4666666666667 21.3333333333334 247.4666666666667 68.2666666666668 149.3333333333333 166.4L149.3333333333333 166.4C55.4666666666667 260.2666666666668 4.2666666666667 388.2666666666667 4.2666666666667 520.5333333333333C4.2666666666667 652.8000000000001 55.4666666666667 780.8 149.3333333333333 874.6666666666667C345.6 1070.9333333333334 661.3333333333333 1070.9333333333334 857.6 874.6666666666667C951.4666666666666 780.8 1002.6666666666666 652.8000000000001 1002.6666666666666 520.5333333333333C1002.6666666666666 388.2666666666667 951.4666666666666 260.2666666666668 857.6 166.4C763.7333333333332 72.5333333333333 631.4666666666667 21.3333333333334 503.4666666666667 21.3333333333334L503.4666666666667 21.3333333333334zM209.0666666666667 230.4C371.2 68.2666666666668 635.7333333333333 68.2666666666668 797.8666666666666 230.4C960 392.5333333333333 960 657.0666666666667 797.8666666666666 819.2C635.7333333333333 981.3333333333334 371.2 981.3333333333334 209.0666666666667 819.2C46.9333333333333 652.8000000000001 46.9333333333333 392.5333333333333 209.0666666666667 230.4L209.0666666666667 230.4L209.0666666666667 230.4z" />
    <glyph glyph-name="circle"
      unicode="&#x25CB;"
      horiz-adv-x="1024" d="M512 27.5692307692307C244.1846153846154 27.5692307692307 23.6307692307692 244.1846153846153 23.6307692307692 512S244.1846153846154 996.4307692307692 512 996.4307692307692S996.4307692307694 779.8153846153846 996.4307692307694 512S779.8153846153847 27.5692307692307 512 27.5692307692307zM512 917.6615384615384C287.5076923076923 917.6615384615384 102.4 736.4923076923077 102.4 512S287.5076923076923 106.3384615384615 512 106.3384615384615S917.6615384615384 287.5076923076923 917.6615384615384 512S736.4923076923077 917.6615384615384 512 917.6615384615384z" />
    <glyph glyph-name="star"
      unicode="&#x2606;"
      horiz-adv-x="1024" d="M226.1333333333334 42.6666666666667C217.6 42.6666666666667 209.0666666666666 46.9333333333334 200.5333333333333 51.2C183.4666666666667 64 179.2 81.0666666666666 183.4666666666667 98.1333333333334L281.6 405.3333333333334L21.3333333333333 593.0666666666667C8.5333333333333 605.8666666666667 0 622.9333333333334 8.5333333333333 640S29.8666666666667 669.8666666666667 51.2 669.8666666666667H371.2L469.3333333333333 977.0666666666666C473.6 994.1333333333334 490.6666666666666 1006.9333333333332 512 1006.9333333333332S546.1333333333333 994.1333333333334 554.6666666666666 977.0666666666666L652.8 669.8666666666667H977.0666666666666C994.1333333333332 669.8666666666667 1011.2 657.0666666666666 1019.7333333333332 640S1019.7333333333332 601.6 1002.6666666666666 593.0666666666667L742.3999999999999 405.3333333333334L840.5333333333333 98.1333333333334C844.8 81.0666666666668 840.5333333333333 59.7333333333335 823.4666666666667 51.2C806.4000000000001 38.4 789.3333333333333 38.4 772.2666666666667 51.2L512 238.9333333333334L251.7333333333334 51.2000000000002C243.2 42.6666666666667 234.6666666666667 42.6666666666667 226.1333333333334 42.6666666666667zM512 332.8000000000001C520.5333333333333 332.8000000000001 529.0666666666666 328.5333333333333 537.5999999999999 324.2666666666668L716.8 192L648.5333333333333 401.0666666666667C644.2666666666667 418.1333333333335 648.5333333333333 439.4666666666667 665.6 448L844.8 580.2666666666667H622.9333333333334C605.8666666666667 580.2666666666667 588.8 593.0666666666667 580.2666666666667 610.1333333333333L512 827.7333333333333L443.7333333333334 618.6666666666667C439.4666666666667 601.6 422.4 588.8000000000001 401.0666666666667 588.8000000000001H179.2L358.4 456.5333333333334C375.4666666666667 443.7333333333334 379.7333333333334 426.6666666666668 375.4666666666667 409.6000000000002L307.2000000000001 200.5333333333335L486.4000000000001 332.8000000000002C490.6666666666666 332.8000000000001 503.4666666666667 332.8000000000001 512 332.8000000000001z" />
    <glyph glyph-name="phone"
      unicode="&#x260E;"
      horiz-adv-x="1024" d="M426.6666666666667 213.3333333333334H597.3333333333333V128H426.6666666666667zM725.3333333333333 1024H298.6666666666667C251.7333333333334 1024 213.3333333333333 985.6 213.3333333333333 938.6666666666666V85.3333333333334C213.3333333333333 38.4 251.7333333333334 0 298.6666666666667 0H725.3333333333333C772.2666666666667 0 810.6666666666666 38.4 810.6666666666666 85.3333333333334V938.6666666666666C810.6666666666666 985.6 772.2666666666667 1024 725.3333333333333 1024zM725.3333333333333 938.6666666666666L725.3333333333333 896H298.6666666666667V938.6666666666666H725.3333333333333zM725.3333333333333 810.6666666666667V341.3333333333334H298.6666666666667V810.6666666666667H725.3333333333333zM298.6666666666667 85.3333333333334V256H725.3333333333333V85.3333333333334H298.6666666666667z" />
    <glyph glyph-name="menu"
      unicode="&#x2630;"
      horiz-adv-x="1024" d="M1002.6666666666666 780.8C1002.6666666666666 746.6666666666667 972.8 716.8 938.6666666666666 716.8H85.3333333333333C51.2 716.8 21.3333333333333 746.6666666666667 21.3333333333333 780.8V780.8C21.3333333333333 814.9333333333334 51.2 844.8 85.3333333333333 844.8H938.6666666666666C972.8 844.8 1002.6666666666666 814.9333333333334 1002.6666666666666 780.8L1002.6666666666666 780.8zM1002.6666666666666 499.2C1002.6666666666666 465.0666666666666 972.8 435.2000000000001 938.6666666666666 435.2000000000001H85.3333333333333C51.2 435.2000000000001 21.3333333333333 465.0666666666666 21.3333333333333 499.2V499.2C21.3333333333333 533.3333333333334 51.2 563.2 85.3333333333333 563.2H938.6666666666666C972.8 563.2 1002.6666666666666 533.3333333333334 1002.6666666666666 499.2L1002.6666666666666 499.2zM1002.6666666666666 213.3333333333334C1002.6666666666666 179.2000000000001 972.8 149.3333333333334 938.6666666666666 149.3333333333334H85.3333333333333C51.2 149.3333333333334 21.3333333333333 179.2000000000001 21.3333333333333 213.3333333333334V213.3333333333334C21.3333333333333 247.4666666666667 51.2 277.3333333333334 85.3333333333333 277.3333333333334H938.6666666666666C972.8 277.3333333333334 1002.6666666666666 251.7333333333334 1002.6666666666666 213.3333333333334L1002.6666666666666 213.3333333333334z" />
    <glyph glyph-name="moon"
      unicode="&#x263E;"
      horiz-adv-x="1024" d="M558.9333333333333 46.9333333333334C354.1333333333334 46.9333333333334 166.4 179.2000000000002 106.6666666666667 384.0000000000001C29.8666666666667 635.7333333333333 174.9333333333333 900.2666666666667 422.4 972.8C456.5333333333334 981.3333333333334 494.9333333333333 989.8666666666666 533.3333333333333 989.8666666666666L640 998.4L554.6666666666666 925.8666666666666C435.2 823.4666666666667 388.2666666666667 661.3333333333334 430.9333333333333 507.7333333333333C482.1333333333333 328.5333333333333 648.5333333333333 213.3333333333334 836.2666666666667 221.8666666666667L947.2 226.1333333333335L861.8666666666668 153.6000000000001C810.6666666666667 110.9333333333334 755.2 76.8000000000001 691.2 59.7333333333335C648.5333333333333 51.2 601.5999999999999 46.9333333333334 558.9333333333333 46.9333333333334zM435.2 896C230.4 827.7333333333333 115.2 610.1333333333334 179.2 405.3333333333334C209.0666666666666 302.9333333333334 277.3333333333333 217.6000000000001 371.2 170.6666666666668C465.0666666666666 119.4666666666667 571.7333333333332 106.6666666666667 674.1333333333332 140.8000000000001C695.4666666666665 145.0666666666668 712.5333333333333 153.6000000000001 729.5999999999999 162.1333333333335C558.9333333333332 196.2666666666668 418.1333333333332 320 366.9333333333332 490.6666666666667L366.9333333333332 490.6666666666667C324.2666666666667 631.4666666666667 349.8666666666666 780.8 435.2 896z" />
    <glyph glyph-name="sun"
      unicode="&#x263C;"
      horiz-adv-x="1024" d="M469.3333333333333 998.4H554.6666666666666V827.7333333333333H469.3333333333333zM469.3333333333333 187.7333333333334H554.6666666666666V17.0666666666666H469.3333333333333zM708.352 254.4213333333335L768.6826666666666 314.7520000000002L910.5066666666665 172.9706666666666L850.1759999999999 112.6400000000001zM125.184 842.1546666666667L185.5146666666667 902.4853333333334L327.296 760.704L266.9653333333333 700.3733333333333zM122.9226666666667 172.2026666666668L264.704 314.0266666666667L325.0346666666667 253.6533333333334L183.2533333333333 111.8720000000001zM710.6133333333333 761.4293333333334L852.4373333333333 903.2533333333334L912.768 842.9226666666667L770.9866666666667 701.0986666666668zM512 285.8666666666667C388.2666666666667 285.8666666666667 290.1333333333334 384 290.1333333333334 507.7333333333333C290.1333333333334 631.4666666666667 388.2666666666667 729.6 512 729.6C635.7333333333333 729.6 733.8666666666666 631.4666666666667 733.8666666666666 507.7333333333333C733.8666666666666 384 635.7333333333333 285.8666666666667 512 285.8666666666667L512 285.8666666666667zM512 644.2666666666667C435.2 644.2666666666667 375.4666666666667 584.5333333333333 375.4666666666667 507.7333333333333C375.4666666666667 430.9333333333334 435.2 371.2000000000001 512 371.2000000000001C588.8 371.2000000000001 648.5333333333333 430.9333333333334 648.5333333333333 507.7333333333333C648.5333333333333 584.5333333333333 588.8 644.2666666666667 512 644.2666666666667L512 644.2666666666667zM25.6 550.4000000000001H196.2666666666667V465.0666666666667H25.6zM836.2666666666667 550.4000000000001H1006.9333333333334V465.0666666666667H836.2666666666667z" />
    <glyph glyph-name="settings"
      unicode="&#x2699;"
      horiz-adv-x="1024" d="M512 0C512 0 418.1333333333334 4.2666666666668 392.5333333333333 55.4666666666667C379.7333333333333 81.0666666666668 375.4666666666666 149.3333333333334 375.4666666666666 187.7333333333335C349.8666666666666 162.1333333333335 264.5333333333333 89.6000000000001 217.5999999999999 106.6666666666669C196.2666666666666 115.2000000000002 166.3999999999999 132.2666666666669 149.3333333333333 149.3333333333335C149.3333333333333 149.3333333333335 85.3333333333333 221.8666666666668 106.6666666666666 273.0666666666669C119.4666666666666 302.9333333333334 162.1333333333333 349.8666666666668 187.7333333333333 379.7333333333335C153.5999999999999 379.7333333333335 38.3999999999999 388.2666666666668 17.0666666666666 435.2000000000002C8.5333333333333 452.2666666666667 0 486.4000000000001 0 512C0 512 4.2666666666667 605.8666666666667 55.4666666666667 631.4666666666667C81.0666666666667 640 149.3333333333333 644.2666666666667 187.7333333333334 648.5333333333333C162.1333333333333 674.1333333333334 85.3333333333333 755.2 106.6666666666667 806.4000000000001C115.2 827.7333333333333 132.2666666666667 857.6 149.3333333333333 874.6666666666667C149.3333333333333 874.6666666666667 221.8666666666667 938.6666666666669 273.0666666666667 917.3333333333334C298.6666666666667 908.8 349.8666666666666 861.8666666666667 375.4666666666667 836.2666666666667C375.4666666666667 870.4 384 985.6 430.9333333333334 1006.9333333333332C452.2666666666667 1015.4666666666666 486.4 1024 512 1024C512 1024 605.8666666666666 1019.7333333333333 631.4666666666667 968.5333333333334C644.2666666666667 942.9333333333334 648.5333333333333 874.6666666666667 648.5333333333333 836.2666666666667C674.1333333333333 861.8666666666667 759.4666666666667 934.4 806.4000000000001 917.3333333333331C827.7333333333333 908.8 857.6 891.7333333333333 874.6666666666667 874.6666666666666C874.6666666666667 874.6666666666666 938.6666666666669 802.1333333333333 917.3333333333334 750.9333333333334C904.5333333333334 721.0666666666666 861.8666666666668 674.1333333333333 836.2666666666669 644.2666666666667C874.6666666666667 644.2666666666667 938.6666666666669 640 968.5333333333336 627.2C1019.7333333333332 605.8666666666667 1024 512 1024 512S1019.7333333333332 418.1333333333335 968.5333333333334 392.5333333333333C942.9333333333332 379.7333333333334 874.6666666666666 375.4666666666667 836.2666666666665 375.4666666666667C861.8666666666666 349.8666666666667 934.3999999999997 264.5333333333333 917.3333333333331 217.5999999999999C908.7999999999998 196.2666666666667 891.7333333333331 166.4 874.6666666666665 149.3333333333333C874.6666666666665 149.3333333333333 802.1333333333332 85.3333333333333 750.9333333333332 106.6666666666665C721.0666666666666 119.4666666666666 674.1333333333332 162.1333333333332 644.2666666666665 187.7333333333331C644.2666666666665 153.5999999999998 635.7333333333332 38.3999999999999 588.7999999999998 17.0666666666665C571.7333333333333 8.5333333333333 537.5999999999999 0 512 0zM546.1333333333333 85.3333333333334L546.1333333333333 85.3333333333334L546.1333333333333 85.3333333333334zM469.3333333333333 98.1333333333334C482.1333333333333 93.8666666666667 503.4666666666667 89.6000000000001 512 85.3333333333334C520.5333333333333 85.3333333333334 537.5999999999999 89.6000000000001 546.1333333333333 89.6000000000001C554.6666666666666 106.6666666666667 558.9333333333334 153.6000000000001 558.9333333333334 192C558.9333333333334 251.7333333333334 588.8 273.0666666666666 605.8666666666667 277.3333333333334C622.9333333333334 285.8666666666667 657.0666666666666 290.1333333333335 699.7333333333333 247.4666666666667C729.6 217.6000000000001 759.4666666666667 192 776.5333333333334 183.4666666666667C789.3333333333335 187.7333333333335 806.4000000000001 200.5333333333333 814.9333333333334 204.8000000000001C819.2 209.0666666666668 827.7333333333333 221.8666666666667 836.2666666666667 234.6666666666668C827.7333333333333 251.7333333333334 802.1333333333333 290.1333333333335 772.2666666666667 320C729.6 362.6666666666668 738.1333333333333 396.8000000000001 742.4000000000001 413.8666666666667C750.9333333333334 430.9333333333334 768.0000000000001 460.8 827.7333333333333 460.8C870.4000000000001 460.8 908.8 465.0666666666666 925.8666666666668 469.3333333333333C930.1333333333334 482.1333333333333 934.4 503.4666666666667 938.6666666666669 512C938.6666666666669 520.5333333333333 934.4 541.8666666666666 925.8666666666668 554.6666666666666C908.8000000000002 558.9333333333333 870.4000000000001 563.1999999999999 827.7333333333333 563.1999999999999C768.0000000000001 563.1999999999999 746.6666666666667 593.0666666666666 742.4000000000001 610.1333333333332S729.6 661.3333333333333 772.2666666666667 703.9999999999999C802.1333333333333 733.8666666666666 827.7333333333333 763.7333333333332 836.2666666666667 780.8C832 793.5999999999999 819.2 810.6666666666665 814.9333333333334 819.1999999999999C810.6666666666666 823.4666666666666 797.8666666666668 831.9999999999999 785.0666666666667 840.5333333333333C768.0000000000001 831.9999999999999 729.6 806.3999999999999 699.7333333333333 776.5333333333333C657.0666666666667 733.8666666666666 622.9333333333334 742.3999999999999 605.8666666666668 746.6666666666665C588.8000000000001 755.1999999999999 558.9333333333334 772.2666666666665 558.9333333333334 831.9999999999999C558.9333333333334 874.6666666666665 554.6666666666667 913.0666666666666 550.4000000000001 930.1333333333332C541.8666666666666 934.4 520.5333333333333 938.6666666666666 512 938.6666666666666C503.4666666666667 938.6666666666666 486.4 934.4 477.8666666666666 934.4C469.3333333333333 917.3333333333334 465.0666666666666 870.4 465.0666666666666 832C465.0666666666666 772.2666666666667 435.2 750.9333333333334 418.1333333333333 746.6666666666667S366.9333333333333 729.6 324.2666666666667 772.2666666666667C290.1333333333334 802.1333333333333 260.2666666666667 827.7333333333333 247.4666666666667 836.2666666666667C234.6666666666667 832 217.6 819.2 209.0666666666667 814.9333333333334C204.8 806.4000000000001 196.2666666666667 793.6 192 785.0666666666667C200.5333333333333 768 226.1333333333334 729.6 256 699.7333333333333C298.6666666666667 657.0666666666667 290.1333333333334 622.9333333333334 285.8666666666667 605.8666666666667C277.3333333333333 588.8 260.2666666666667 558.9333333333334 200.5333333333333 558.9333333333334C157.8666666666667 558.9333333333334 119.4666666666667 554.6666666666667 102.4 550.4000000000001C89.6 541.8666666666667 85.3333333333333 520.5333333333333 85.3333333333333 512C85.3333333333333 503.4666666666667 89.6 486.4000000000001 89.6 477.8666666666667C106.6666666666667 469.3333333333334 153.6 465.0666666666666 192 465.0666666666666C251.7333333333334 465.0666666666666 273.0666666666667 435.2000000000001 277.3333333333333 418.1333333333334C285.8666666666667 401.0666666666666 290.1333333333334 366.9333333333334 247.4666666666667 324.2666666666667C217.6 294.4 192 264.5333333333333 183.4666666666667 247.4666666666666C187.7333333333333 234.6666666666665 200.5333333333333 217.5999999999999 204.8 209.0666666666666C209.0666666666666 204.8 221.8666666666667 192 234.6666666666667 187.7333333333334C251.7333333333334 196.2666666666667 290.1333333333334 221.8666666666667 320 251.7333333333334C362.6666666666667 294.4 396.8 285.8666666666667 413.8666666666666 281.5999999999999C430.9333333333333 273.0666666666666 460.8 255.9999999999999 460.8 196.2666666666667C460.8 153.6000000000001 465.0666666666667 110.9333333333334 469.3333333333333 98.1333333333334zM234.6666666666667 187.7333333333334L234.6666666666667 187.7333333333334L234.6666666666667 187.7333333333334zM772.2666666666667 187.7333333333334L772.2666666666667 187.7333333333334L772.2666666666667 187.7333333333334zM648.5333333333333 209.0666666666666L648.5333333333333 209.0666666666666L648.5333333333333 209.0666666666666zM375.4666666666667 209.0666666666666M836.2666666666667 234.6666666666668L836.2666666666667 234.6666666666668L836.2666666666667 234.6666666666668zM187.7333333333334 251.7333333333334L187.7333333333334 251.7333333333334L187.7333333333334 251.7333333333334zM209.0666666666667 375.4666666666667L209.0666666666667 375.4666666666667L209.0666666666667 375.4666666666667zM925.8666666666666 465.0666666666667L925.8666666666666 465.0666666666667L925.8666666666666 465.0666666666667zM85.3333333333333 477.8666666666667M925.8666666666666 558.9333333333334L925.8666666666666 558.9333333333334L925.8666666666666 558.9333333333334zM98.1333333333333 558.9333333333334L98.1333333333333 558.9333333333334L98.1333333333333 558.9333333333334zM200.5333333333333 627.2L200.5333333333333 627.2L200.5333333333333 627.2zM187.7333333333334 789.3333333333334M375.4666666666667 814.9333333333334L375.4666666666667 814.9333333333334L375.4666666666667 814.9333333333334zM648.5333333333333 814.9333333333334L648.5333333333333 814.9333333333334L648.5333333333333 814.9333333333334zM251.7333333333334 836.2666666666667L251.7333333333334 836.2666666666667L251.7333333333334 836.2666666666667zM789.3333333333333 836.2666666666667M558.9333333333333 925.8666666666666L558.9333333333333 925.8666666666666L558.9333333333333 925.8666666666666zM477.8666666666666 938.6666666666666M512 311.4666666666667C401.0666666666667 311.4666666666667 311.4666666666667 401.0666666666667 311.4666666666667 512S401.0666666666667 712.5333333333333 512 712.5333333333333S712.5333333333333 622.9333333333334 712.5333333333333 512S622.9333333333333 311.4666666666667 512 311.4666666666667zM512 627.2C448 627.2 396.8 576 396.8 512S448 396.8000000000001 512 396.8000000000001S627.1999999999999 448 627.1999999999999 512S576 627.2 512 627.2z" />
    <glyph glyph-name="alert"
      unicode="&#x26A0;"
      horiz-adv-x="1024" d="M511.9914666666667 938.6666666666666C747.6394666666666 938.6666666666666 938.6581333333334 747.648 938.6581333333334 512C938.6581333333334 276.3946666666668 747.6394666666666 85.3333333333334 511.9914666666667 85.3333333333334C276.3861333333333 85.3333333333334 85.3248 276.3946666666668 85.3248 512C85.3248 747.648 276.3861333333333 938.6666666666666 511.9914666666667 938.6666666666666zM511.9914666666667 853.3333333333334C323.4901333333334 853.3333333333334 170.6581333333333 700.5013333333334 170.6581333333333 512C170.6581333333333 323.4986666666668 323.4901333333334 170.6666666666668 511.9914666666667 170.6666666666668C700.5354666666667 170.6666666666668 853.3248 323.4986666666668 853.3248 512C853.3248 700.5013333333334 700.5354666666667 853.3333333333334 511.9914666666667 853.3333333333334zM512.2816 341.3333333333334C535.8762666666667 341.3333333333334 554.9482666666667 322.2613333333334 554.9482666666667 298.6666666666668C554.9482666666667 275.072 535.8762666666667 256 512.2816 256C488.7295999999999 256 469.6149333333333 275.072 469.6149333333333 298.6666666666668C469.6149333333333 322.2613333333334 488.7295999999999 341.3333333333334 512.2816 341.3333333333334zM511.9914666666667 768C535.5861333333332 768 554.6581333333334 748.8853333333334 554.6581333333334 725.3333333333334L554.6581333333334 469.3333333333334C554.6581333333334 445.7386666666667 535.5861333333332 426.6666666666668 511.9914666666667 426.6666666666668C488.4394666666667 426.6666666666668 469.3248 445.7386666666667 469.3248 469.3333333333334L469.3248 725.3333333333334C469.3248 747.20304768 485.8063232 765.2466939733333 507.0178773333333 767.7127773866666L511.9914666666667 768z" />
    <glyph glyph-name="search"
      unicode="&#x26B2;"
      horiz-adv-x="1063.3846153846155" d="M759.9947224615386 379.9748411076922L711.6590592000001 379.9748411076922L694.9391753846154 396.0754727384615C754.5227618461539 462.5271571692307 790.3945097846154 548.8850786461538 790.3945097846154 643.4396798030768C790.3945097846154 853.6260722215384 613.4677385846154 1024 395.1972548923077 1024C176.9267712 1024 0 853.6260722215384 0 643.4396798030768C0 433.2532893538461 176.9267712 262.8793580307692 395.1972548923077 262.8793580307692C493.3885755076924 262.8793580307692 583.0679512615385 297.4225289846154 652.0754727384616 354.5065747692309L668.7953565538462 338.4059470769231L668.7953565538462 292.1532297846153L972.7932455384616 0L1063.3846153846155 87.2361353846154L759.9947224615386 379.9748411076922zM395.1972548923077 379.9748411076922C244.1103048861539 379.9748411076922 121.5991555938462 497.9485420307692 121.5991555938462 643.4396798030768C121.5991555938462 788.9308175753846 244.1103048861539 906.904516923077 395.1972548923077 906.904516923077C546.2842052923077 906.904516923077 668.7953565538462 788.9308175753846 668.7953565538462 643.4396798030768C668.7953565538462 497.9485420307692 546.2842052923077 379.9748411076922 395.1972548923077 379.9748411076922z" />
    <glyph glyph-name="send"
      unicode="&#x2708;"
      horiz-adv-x="1024" d="M1012.1846153846154 909.7846153846154L23.6307692307692 626.2153846153847L291.4461538461539 433.2307692307692L252.0615384615385 149.6615384615384L527.7538461538462 263.8769230769231L744.3692307692307 110.276923076923L1012.1846153846154 909.7846153846154zM807.3846153846155 768L366.2769230769232 476.5538461538462L200.8615384615385 594.7076923076922L807.3846153846155 768zM346.5846153846154 271.7538461538461L362.3384615384616 378.0923076923076L452.923076923077 315.0769230769229L346.5846153846154 271.7538461538461zM437.1692307692308 425.3538461538461L862.5230769230769 708.9230769230769L704.9846153846154 232.3692307692307L437.1692307692308 425.3538461538461z" />
    <glyph glyph-name="edit"
      unicode="&#x270E;"
      horiz-adv-x="1024" d="M883.5011114666665 723.5307118933333C900.1662975999999 740.19589504 900.1662975999999 767.0752230400001 883.5011114666665 783.6636083200001L783.6636074666667 883.50111232C767.0752213333333 900.1662958933333 740.1958954666667 900.1662958933333 723.5307135999999 883.50111232L645.4654634666666 805.4358638933334L805.4358655999999 645.4654634666667L883.5011114666665 723.5307118933333zM128 287.9704021333335L128 128L287.9704008533334 128L759.7794048000001 599.8090048L599.8090026666666 759.7794056533334L128 287.9704021333335z" />
    <glyph glyph-name="check-mark"
      unicode="&#x2713;"
      horiz-adv-x="1024" d="M917.3333333333331 832C947.2 806.4000000000001 947.2 759.4666666666667 921.6 733.8666666666667C921.6 733.8666666666667 921.6 733.8666666666667 921.6 733.8666666666667L396.8 200.5333333333333C371.2000000000001 170.6666666666668 324.2666666666667 170.6666666666668 294.4 200.5333333333333C294.4 200.5333333333333 290.1333333333334 204.8000000000001 290.1333333333334 204.8000000000001C285.8666666666667 204.8000000000001 285.8666666666667 209.0666666666668 281.6 213.3333333333334L106.6666666666667 384C81.0666666666667 409.6 81.0666666666667 456.5333333333333 106.6666666666667 482.1333333333334C106.6666666666667 482.1333333333334 106.6666666666667 482.1333333333334 106.6666666666667 482.1333333333334C136.5333333333334 507.7333333333333 179.2000000000001 507.7333333333333 209.0666666666667 482.1333333333334L341.3333333333333 349.8666666666667L814.9333333333334 832C844.8 861.8666666666667 887.4666666666667 861.8666666666667 917.3333333333331 832z" />
    <glyph glyph-name="check-mark-circle"
      unicode="&#x2714;"
      horiz-adv-x="1024" d="M512.0128 938.6666666666666C747.6181333333334 938.6666666666666 938.6794666666666 747.648 938.6794666666666 512C938.6794666666666 276.3946666666668 747.6181333333334 85.3333333333334 512.0128 85.3333333333334C276.3648 85.3333333333334 85.3461333333333 276.3946666666668 85.3461333333333 512C85.3461333333333 747.648 276.3648 938.6666666666666 512.0128 938.6666666666666zM512.0128 853.3333333333334C323.8101333333333 853.3333333333334 170.6794666666667 700.2026666666667 170.6794666666667 512C170.6794666666667 323.7973333333333 323.8101333333333 170.6666666666668 512.0128 170.6666666666668C700.2154666666667 170.6666666666668 853.3461333333332 323.7973333333333 853.3461333333332 512C853.3461333333332 700.2026666666667 700.2154666666667 853.3333333333334 512.0128 853.3333333333334zM729.8907221333334 638.4748356266667C746.5530922666667 621.81246592 746.5530922666667 594.7974272 729.8907221333334 578.1350570666667L487.8646485333334 336.1089792C471.5706325333333 319.8149632 445.1528106666666 319.8149632 428.8587904 336.1089792L306.83626112 458.1315114666668C290.5422442666667 474.4255274666667 290.5422442666667 500.8433493333334 306.83626112 517.1373696L308.1701841066666 518.4712917333334C324.4642013866667 534.7653077333334 350.8820228266667 534.7653077333334 367.1760401066666 518.4712917333334L458.3526698666667 427.2946602666667L669.5509461333334 638.4748356266667C686.2133162666667 655.1372053333334 713.2283562666667 655.1372053333334 729.8907221333334 638.4748356266667z" />
    <glyph glyph-name="right-arrow"
      unicode="&#x2794;"
      horiz-adv-x="1264.9411764705883" d="M716.8000000000001 -0.04096C690.5856 -0.04096 664.3712 10.09664 644.4032 29.9622400000001C604.3648000000001 70.10304 604.3648000000001 134.71744 644.4032 174.85824L981.6063999999998 511.9590400000001L644.4032 849.16224C604.3648000000001 889.30304 604.3648000000001 953.91744 644.4032 994.05824C684.4416 1033.99424 749.1584 1033.99424 789.1968 994.05824L1198.7968 584.4582399999999C1238.8352 544.31744 1238.8352 479.70304 1198.7968 439.5622400000001L789.1968 29.9622400000001C769.2288 10.09664 743.0144 -0.04096 716.8000000000001 -0.04096M1126.3999999999999 409.6L102.4 409.6C45.8752 409.6 0 455.4752 0 512C0 568.5247999999999 45.8752 614.4000000000001 102.4 614.4000000000001L1126.3999999999999 614.4000000000001C1183.0272 614.4000000000001 1228.8 568.5247999999999 1228.8 512C1228.8 455.4752 1183.0272 409.6 1126.3999999999999 409.6" />
    <glyph glyph-name="right-arrow-circle"
      unicode="&#x27B2;"
      horiz-adv-x="1024" d="M439.4666666666667 221.8666666666667L375.4666666666667 281.6000000000002L627.1999999999999 529.0666666666667L375.4666666666667 780.8L439.4666666666667 840.5333333333333L746.6666666666666 529.0666666666667zM499.1999999999999 51.2C234.6666666666667 51.2 17.0666666666666 268.8 17.0666666666666 533.3333333333334S230.4 1019.7333333333333 499.1999999999999 1019.7333333333333S981.3333333333331 802.1333333333333 981.3333333333331 537.6S763.7333333333332 51.2 499.1999999999999 51.2zM499.1999999999999 934.4C281.6 934.4 102.3999999999999 755.2 102.3999999999999 537.6C102.3999999999999 320 281.5999999999999 140.8 499.1999999999999 140.8S896 319.9999999999999 896 537.5999999999999C896 755.2 716.8 934.4 499.1999999999999 934.4z" />
    <glyph glyph-name="open"
      unicode="&#x49A3;"
      horiz-adv-x="1024" d="M554.6666666666666 465.0666666666667A42.666666666666664 42.666666666666664 0 0 1 640 465.0666666666667A42.666666666666664 42.666666666666664 0 0 1 554.6666666666666 465.0666666666667M725.3333333333333 1024H708.2666666666667L708.2666666666667 1024C708.2666666666667 1024 708.2666666666667 1024 704 1024H320C260.2666666666667 1024 213.3333333333333 977.0666666666666 213.3333333333333 917.3333333333334V320C213.3333333333333 260.2666666666668 260.2666666666667 213.3333333333334 320 213.3333333333334H426.6666666666667V110.9333333333334V106.6666666666667C426.6666666666667 76.8000000000001 426.6666666666667 34.1333333333334 460.8 12.8000000000001C469.3333333333333 8.5333333333333 482.1333333333333 4.2666666666668 494.9333333333334 4.2666666666668C507.7333333333334 4.2666666666668 516.2666666666667 8.5333333333335 533.3333333333334 12.8000000000001L541.8666666666667 17.0666666666668L733.8666666666668 204.8000000000002C742.4000000000001 213.3333333333335 750.9333333333334 221.8666666666668 759.4666666666668 234.6666666666669C789.3333333333335 251.7333333333335 810.6666666666667 285.8666666666668 810.6666666666667 324.2666666666669V354.1333333333336V917.3333333333334V925.8666666666666C810.6666666666666 985.6 772.2666666666667 1024 725.3333333333333 1024zM486.4 810.6666666666667C448 772.2666666666667 426.6666666666667 725.3333333333334 426.6666666666667 682.6666666666667V298.6666666666668H320C307.2 298.6666666666668 298.6666666666667 307.2000000000001 298.6666666666667 320V917.3333333333334C298.6666666666667 930.1333333333334 307.2 938.6666666666666 320 938.6666666666666H618.6666666666666L486.4 810.6666666666667zM512 106.6666666666667V682.6666666666667C512 704 524.8 733.8666666666667 546.1333333333333 750.9333333333334L721.0666666666666 921.6C721.0666666666666 917.3333333333331 721.0666666666666 917.3333333333331 721.0666666666666 913.0666666666666V345.5999999999999C721.0666666666666 332.8 712.5333333333333 294.4 669.8666666666666 255.9999999999999L512 106.6666666666667z" />
    <glyph glyph-name="rewards"
      unicode="&#x5956;"
      horiz-adv-x="1024" d="M512 597.3333333333334C653.4143999999999 597.3333333333334 768 482.7477333333334 768 341.3333333333334C768 199.9189333333334 653.4143999999999 85.3333333333334 512 85.3333333333334C370.6368 85.3333333333334 256 199.9189333333334 256 341.3333333333334C256 482.7477333333334 370.6368 597.3333333333334 512 597.3333333333334zM514.2186666666666 512L464.5546666666667 411.3664384000001C462.0515541333333 406.2752853333334 457.8008192 402.5163946666667 452.7345194666667 400.7597098666668L448.7964458666667 399.8280789333334L341.3333333333333 385.494336L417.5644445866667 305.0231765333333C421.4328887466667 300.9787989333334 423.51729792 295.5640960000001 423.5555272533334 289.9666816000002L423.1964445866667 285.7529173333335L403.0577779200001 174.5326122666668L499.7688874666667 225.4441557333334C504.6385792 228.0135210666668 510.2000341333333 228.4512640000001 515.2881792 226.7573845333334L518.9973333333332 225.0872960000001L614.0017792 170.6666666666668L597.5608874666666 282.6006869333335C596.7416874666667 288.2152277333334 598.0706133333333 293.9439658666668 601.1981354666666 298.5079253333334L603.8755541333333 301.6925141333334L682.6666666666666 379.2493482666667L575.8293333333334 397.5085098666667C570.4135125333332 398.3649664000001 565.6530474666666 401.4672384000001 562.4800127999999 405.9626794666667L560.4124458666666 409.5821568L514.2186666666666 512zM915.0652885333334 938.6666666666666C928.5929216 938.6666666666666 937.6980565333334 925.696 932.3910613333334 914.04190464L932.3910613333334 914.04190464L787.5413589333332 597.3333333333334L782.0782762666665 597.3333333333334C716.3652096000001 657.60304768 626.6145834666667 694.85714304 527.3946154666667 694.85714304C520.6308010666667 694.85714304 513.9710464 694.2232379733334 507.2592597333333 693.88190464L507.2592597333333 693.88190464L584.0025472 926.2323810133335C586.4479274666667 933.5954286933334 593.784064 938.6666666666666 602.0047018666667 938.6666666666666L602.0047018666667 938.6666666666666zM484.7253333333333 938.6666666666666C497.7386666666666 938.6666666666666 507.0186666666667 927.15885696 503.1786666666667 915.7973333333334L503.1786666666667 915.7973333333334L429.152 697.14895232C427.1786666666667 691.2975236266667 421.8986666666666 687.0064763733334 415.392 685.5923810133334C348.4586666666667 671.0125713066667 288.5653333333334 639.9024763733333 240.992 597.3333333333334L240.992 597.3333333333334L235.392 597.3333333333334L86.912 914.04190464C81.4186666666667 925.696 90.8053333333333 938.6666666666666 104.672 938.6666666666666L104.672 938.6666666666666z" />
    <glyph glyph-name="clear-cache"
      unicode="&#x5E1A;"
      horiz-adv-x="1024" d="M819.1999999999999 819.2L768 840.5333333333333L814.9333333333334 955.7333333333333L691.2 1006.9333333333334L644.2666666666668 891.7333333333333L584.5333333333334 913.0666666666668L81.0666666666667 302.9333333333334L230.4 307.2000000000002L285.8666666666667 247.4666666666669L384 247.4666666666669L452.2666666666667 183.4666666666669L541.8666666666666 187.7333333333336L618.6666666666666 119.4666666666669L686.9333333333334 123.7333333333336L814.9333333333334 12.8000000000002L819.1999999999999 819.2zM733.8666666666666 533.3333333333334L469.3333333333333 640L486.4 661.3333333333334L733.8666666666666 563.2L733.8666666666666 533.3333333333334zM610.1333333333333 810.6666666666667L733.8666666666666 763.7333333333333L733.8666666666666 661.3333333333334L546.1333333333332 733.8666666666667L610.1333333333333 810.6666666666667zM725.3333333333333 213.3333333333334L657.0666666666666 209.0666666666666L580.2666666666667 273.0666666666666L494.9333333333333 268.8L426.6666666666667 332.8L332.8 332.8L273.0666666666667 396.8L273.0666666666667 396.8L418.1333333333334 575.9999999999999L738.1333333333333 447.9999999999999L738.1333333333333 209.0666666666666L725.3333333333333 213.3333333333334z" />
    <glyph glyph-name="399-tag"
      unicode="&#xEA01;"
      horiz-adv-x="1024" d="M38.4 512L507.7333333333333 977.0666666666666L524.8 977.0666666666666C610.1333333333333 977.0666666666666 925.8666666666668 994.1333333333334 930.1333333333334 994.1333333333334L977.0666666666668 998.4L977.0666666666668 951.4666666666666C977.0666666666668 947.2 972.8 733.8666666666667 960.0000000000002 541.8666666666667L960.0000000000002 524.8L490.6666666666666 55.4666666666667C452.2666666666667 17.0666666666668 366.9333333333333 34.1333333333334 337.0666666666667 68.2666666666668L38.4 366.9333333333334C4.2666666666667 405.3333333333334 4.2666666666667 473.6 38.4 512zM541.8666666666666 891.7333333333333L102.4 448C98.1333333333333 443.7333333333334 98.1333333333333 430.9333333333334 102.4 426.6666666666668L401.0666666666667 128C405.3333333333333 123.7333333333334 430.9333333333333 119.4666666666667 439.4666666666667 119.4666666666667L878.9333333333334 558.9333333333334C887.4666666666667 691.2 891.7333333333333 832.0000000000001 891.7333333333333 904.5333333333334C802.1333333333333 900.2666666666667 622.9333333333333 891.7333333333333 541.8666666666666 891.7333333333333zM439.4666666666667 123.7333333333334L439.4666666666667 123.7333333333334L439.4666666666667 123.7333333333334zM712.5333333333334 789.3333333333334A59.73333333333333 59.73333333333333 0 0 1 832 789.3333333333334A59.73333333333333 59.73333333333333 0 0 1 712.5333333333334 789.3333333333334M285.8666666666667 384C307.2 396.8000000000001 328.5333333333333 405.3333333333334 345.6 384C366.9333333333333 362.6666666666668 362.6666666666667 328.5333333333333 345.6 307.2000000000001L358.4 298.6666666666668C362.6666666666667 294.4 362.6666666666667 290.1333333333335 358.4 285.8666666666667L349.8666666666667 277.3333333333334L337.0666666666667 294.4C324.2666666666667 285.8666666666667 307.2000000000001 277.3333333333334 290.1333333333334 277.3333333333334L285.8666666666667 294.4C285.8666666666667 307.2000000000001 307.2000000000001 311.4666666666666 315.7333333333334 315.7333333333334L290.1333333333334 349.8666666666667C234.6666666666668 320 187.7333333333334 375.4666666666667 230.4000000000001 422.4L221.8666666666667 430.9333333333333C217.6000000000001 435.2 217.6000000000001 439.4666666666666 221.8666666666667 443.7333333333334L230.4000000000001 452.2666666666667L243.2000000000001 435.2C256.0000000000001 443.7333333333333 268.8000000000001 448 281.6000000000001 448L285.8666666666668 435.2C285.8666666666668 430.9333333333333 285.8666666666668 426.6666666666667 281.6000000000001 426.6666666666667C277.3333333333335 422.4 268.8000000000001 422.4 260.2666666666668 418.1333333333334L285.8666666666667 384zM247.4666666666667 401.0666666666667C243.2 392.5333333333334 238.9333333333333 384 247.4666666666667 375.4666666666667C256 371.2000000000001 260.2666666666667 371.2000000000001 268.8 375.4666666666667L247.4666666666667 401.0666666666667zM328.5333333333333 328.5333333333333C337.0666666666667 337.0666666666666 337.0666666666667 345.6 328.5333333333333 354.1333333333334C320 358.4 315.7333333333334 358.4 307.2 354.1333333333334L328.5333333333333 328.5333333333333zM345.6 409.6C307.2 460.8 328.5333333333333 533.3333333333334 388.2666666666667 558.9333333333334C443.7333333333334 584.5333333333333 512 533.3333333333334 482.1333333333333 473.6C512 486.4000000000001 537.6 482.1333333333333 558.9333333333334 460.8C593.0666666666667 426.6666666666667 588.8 375.4666666666667 558.9333333333334 341.3333333333334C524.8 298.6666666666668 477.8666666666667 290.1333333333335 426.6666666666668 315.7333333333334L439.4666666666668 341.3333333333334C443.7333333333334 349.8666666666667 452.2666666666668 362.6666666666668 465.0666666666667 358.4000000000001C499.2000000000001 349.8666666666668 546.1333333333334 375.4666666666667 520.5333333333334 413.8666666666668C499.2000000000001 448.0000000000001 469.3333333333335 426.6666666666668 448.0000000000001 405.3333333333335L418.1333333333335 435.2000000000001C435.2000000000002 452.2666666666668 452.2666666666669 477.8666666666668 430.9333333333335 499.2C409.6000000000002 520.5333333333334 379.7333333333336 507.7333333333333 371.2000000000002 482.1333333333334C366.9333333333335 460.8000000000001 388.2666666666669 448 366.9333333333335 430.9333333333334L345.6 409.6zM554.6666666666666 605.8666666666667C554.6666666666666 610.1333333333333 554.6666666666666 610.1333333333333 554.6666666666666 614.4C550.4 605.8666666666667 546.1333333333333 601.5999999999999 541.8666666666666 593.0666666666666C503.4666666666667 554.6666666666667 448 610.1333333333334 469.3333333333333 652.8000000000001C499.1999999999999 721.0666666666667 576 682.6666666666667 584.5333333333333 622.9333333333334L593.0666666666666 563.2C593.0666666666666 554.6666666666667 593.0666666666666 550.4000000000001 584.5333333333333 546.1333333333334L563.1999999999999 524.8000000000001L554.6666666666666 605.8666666666667zM499.1999999999999 622.9333333333334C512 610.1333333333333 520.5333333333333 610.1333333333333 533.3333333333333 622.9333333333334C541.8666666666666 631.4666666666667 541.8666666666666 648.5333333333333 533.3333333333333 657.0666666666667C512 674.1333333333334 477.8666666666666 644.2666666666667 499.1999999999999 622.9333333333334C512 610.1333333333334 499.1999999999999 622.9333333333334 499.1999999999999 622.9333333333334zM640 686.9333333333334C640 691.2 640 691.2 640 695.4666666666667C640 691.2 635.7333333333333 682.6666666666667 627.1999999999999 678.4000000000001C588.8 640 533.3333333333333 695.4666666666667 550.3999999999999 738.1333333333334C580.2666666666665 806.4000000000001 657.0666666666666 768 665.5999999999999 708.2666666666667L674.1333333333332 648.5333333333334C674.1333333333332 640.0000000000001 674.1333333333332 635.7333333333333 665.5999999999999 631.4666666666667L644.2666666666665 610.1333333333334L640 686.9333333333334zM584.5333333333333 704C597.3333333333333 691.2 605.8666666666666 691.2 618.6666666666666 704C627.1999999999999 712.5333333333333 627.1999999999999 729.6 618.6666666666666 738.1333333333333C597.3333333333333 759.4666666666667 563.1999999999999 725.3333333333334 584.5333333333333 704C597.3333333333333 695.4666666666667 584.5333333333333 708.2666666666667 584.5333333333333 704z" />
    <glyph glyph-name="android"
      unicode="&#xEA02;"
      horiz-adv-x="1024" d="M565.6830873600001 476.08471552L733.87863552 307.88916736L182.643721216 12.77410304C153.998016512 -2.5630208 122.9350144 -3.3425971200002 96.053172224 6.4568678400001L96.053172224 6.4568678400001L565.6830873600001 476.08471552zM53.058767872 988.7090367488L529.76688128 512.0009251839999L53.056699904 35.2907468799999C36.2162597376 53.80199424 25.6 78.51674624 25.6 106.83160064L25.6 106.83160064L25.6 917.170251776C25.6 945.485102592 36.2162597376 970.197786624 53.058767872 988.7090367488L53.058767872 988.7090367488zM780.66131456 691.0629427199999L939.4440857600002 606.0563548160001C1014.55401984 565.845255168 1014.55401984 458.1565952 939.44201728 417.9454976L939.44201728 417.9454976L780.66131456 332.9368422399999L601.59723008 512.0009251839999L780.66131456 691.0629427199999zM96.053172224 1017.542914048C122.937081856 1027.34444719104 153.998016512 1026.56073810432 182.643721216 1011.225681152L182.643721216 1011.225681152L733.87863552 716.1106160639999L565.68101888 547.915066368z" />
    <glyph glyph-name="bank-add"
      unicode="&#xEA03;"
      horiz-adv-x="940.2181818181817" d="M828.5090909090909 223.3986327272728C828.5090909090909 213.1307054545456 820.1774545454546 204.7990690909092 809.9188363636363 204.7990690909092L735.4181818181818 204.7990690909092L735.4181818181818 130.2984145454545C735.4181818181818 120.0304872727273 727.0586181818181 111.70816 716.8186181818181 111.70816L698.1632 111.70816C687.8952727272726 111.70816 679.5636363636363 120.0397963636365 679.5636363636363 130.2984145454545L679.5636363636363 204.7990690909092L605.0629818181818 204.7990690909092C594.7950545454545 204.7990690909092 586.4727272727273 213.1586327272728 586.4727272727273 223.3986327272728L586.4727272727273 242.054050909091C586.4727272727273 252.3312872727273 594.8043636363636 260.6536145454545 605.0629818181818 260.6536145454545L679.5636363636363 260.6536145454545L679.5636363636363 335.1542690909091C679.5636363636363 345.4221963636365 687.9232 353.7445236363636 698.1632 353.7445236363636L716.8186181818181 353.7445236363636C727.0958545454545 353.7445236363636 735.4181818181818 345.4128872727273 735.4181818181818 335.1542690909091L735.4181818181818 260.6536145454545L809.9188363636363 260.6536145454545C820.1867636363636 260.6536145454545 828.5090909090909 252.294050909091 828.5090909090909 242.054050909091L828.5090909090909 223.3986327272728zM707.4909090909091 465.4536145454546C578.9602909090909 465.4536145454546 474.7636363636364 361.2569600000001 474.7636363636364 232.7263418181818C474.7636363636364 104.1957236363636 578.9602909090909 -0.0009309090908 707.4909090909091 -0.0009309090908C836.0215272727272 -0.0009309090908 940.2181818181818 104.1957236363636 940.2181818181818 232.7263418181818C940.2181818181818 361.2569600000001 836.0215272727272 465.4536145454546 707.4909090909091 465.4536145454546L707.4909090909091 465.4536145454546zM93.0909090909091 742.7816727272727L129.9362909090909 763.3454545454546L446.8363636363636 940.2181818181818L785.8455272727273 763.3454545454546L809.8909090909091 750.7968000000001L875.0545454545454 716.8L912.290909090909 781.9636363636364L446.8363636363636 1024L0 781.9636363636364L46.5454545454545 716.8zM549.2363636363636 462.8042472727273L549.2363636363636 670.2573381818182L549.2363636363636 688.87552L605.090909090909 688.87552L605.090909090909 670.2573381818182L605.090909090909 492.5374836363637C628.5405090909092 501.7907200000001 653.5074909090908 508.0185018181818 679.5636363636363 510.606429090909L679.5636363636363 670.2573381818182L679.5636363636363 763.3482472727273L474.7636363636364 763.3482472727273L474.7636363636364 670.2573381818182L474.7636363636364 456.1482472727273L428.2181818181818 456.1482472727273L428.2181818181818 512.0027927272728L428.2181818181818 670.2573381818182L428.2181818181818 763.3482472727273L223.4181818181818 763.3482472727273L223.4181818181818 670.2573381818182L223.4181818181818 456.1482472727273L167.5636363636364 456.1482472727273L167.5636363636364 670.2573381818182L167.5636363636364 716.8027927272728L93.0909090909091 716.8027927272728L93.0909090909091 670.2573381818182L93.0909090909091 381.67552L297.8909090909091 381.67552L297.8909090909091 670.2573381818182L297.8909090909091 688.87552L353.7454545454546 688.87552L353.7454545454546 670.2573381818182L353.7454545454546 381.67552L471.3006545454545 381.67552C491.5386181818182 413.7081018181819 518.0881454545455 441.3374836363637 549.2363636363636 462.8042472727273M735.4181818181818 670.2545454545455L735.4181818181818 510.5757090909091C761.4650181818182 507.9877818181818 786.4506181818182 501.8251636363636 809.8909090909091 492.5812363636364L809.8909090909091 670.2545454545455L809.8909090909091 716.8L735.4181818181818 716.8L735.4181818181818 670.2545454545455zM65.1636363636364 260.6545454545456L429.6145454545454 260.6545454545456C432.2024727272727 286.710690909091 438.4302545454546 311.6776727272727 447.6741818181818 335.1272727272728L65.1636363636364 335.1272727272728L65.1636363636364 260.6545454545456zM18.6181818181818 204.8000000000001L18.6181818181818 130.3272727272728L447.5904 130.3272727272728C438.3464727272728 153.7675636363637 432.2117818181818 178.7624727272728 429.6238545454546 204.8000000000001L18.6181818181818 204.8000000000001z" />
    <glyph glyph-name="bank-confirm"
      unicode="&#xEA04;"
      horiz-adv-x="940.2181818181817" d="M707.4909090909091 0C836.0226322618182 0 940.2181818181818 104.1955495563636 940.2181818181818 232.7272727272728C940.2181818181818 361.2589958981819 836.0226322618182 465.4545454545455 707.4909090909091 465.4545454545455C578.95918592 465.4545454545455 474.7636363636364 361.2589958981819 474.7636363636364 232.7272727272728C474.7636363636364 104.1955495563636 578.95918592 0 707.4909090909091 0zM599.1728686545454 255.2583801018182L577.7614913163636 233.4509735563637C571.1237064145454 226.6840492218182 571.2270187054545 215.7416047709091 577.9853339927273 209.1038189381819L666.0328420072727 122.6662539636363C666.9196018036363 121.80532224 667.87523584 121.0735299490911 668.8825269527273 120.4364399709091C675.5805770472728 115.9079386763637 684.7925480727273 116.5794648436364 690.7157597090909 122.4940674327273L844.5126395345454 276.28233728C851.2020805818182 282.9889973527273 851.2020805818182 293.9400508509091 844.5126395345454 300.6294918981819L822.9032475927273 322.23888384C816.2138065454544 328.9283248872728 805.2455340218181 328.9369339345455 798.5560929745454 322.23888384L678.154763170909 201.8547721309092L623.5200232727273 255.4736128000001C616.7617079854546 262.120006749091 605.8020445090909 262.0166953890909 599.1728686545454 255.2583801018182zM93.0909090909091 742.7816727272727L129.9362909090909 763.3454545454546L446.8363636363636 940.2181818181818L785.8455272727273 763.3454545454546L809.8909090909091 750.7968000000001L875.0545454545454 716.8L912.290909090909 781.9636363636364L446.8363636363636 1024L0 781.9636363636364L46.5454545454545 716.8zM549.2363636363636 462.8042472727273L549.2363636363636 670.2573381818182L549.2363636363636 688.87552L605.090909090909 688.87552L605.090909090909 670.2573381818182L605.090909090909 492.5374836363637C628.5405090909092 501.7907200000001 653.5074909090908 508.0185018181818 679.5636363636363 510.606429090909L679.5636363636363 670.2573381818182L679.5636363636363 763.3482472727273L474.7636363636364 763.3482472727273L474.7636363636364 670.2573381818182L474.7636363636364 456.1482472727273L428.2181818181818 456.1482472727273L428.2181818181818 512.0027927272728L428.2181818181818 670.2573381818182L428.2181818181818 763.3482472727273L223.4181818181818 763.3482472727273L223.4181818181818 670.2573381818182L223.4181818181818 456.1482472727273L167.5636363636364 456.1482472727273L167.5636363636364 670.2573381818182L167.5636363636364 716.8027927272728L93.0909090909091 716.8027927272728L93.0909090909091 670.2573381818182L93.0909090909091 381.67552L297.8909090909091 381.67552L297.8909090909091 670.2573381818182L297.8909090909091 688.87552L353.7454545454546 688.87552L353.7454545454546 670.2573381818182L353.7454545454546 381.67552L471.3006545454545 381.67552C491.5386181818182 413.7081018181819 518.0881454545455 441.3374836363637 549.2363636363636 462.8042472727273M735.4181818181818 670.2545454545455L735.4181818181818 510.5757090909091C761.4650181818182 507.9877818181818 786.4506181818182 501.8251636363636 809.8909090909091 492.5812363636364L809.8909090909091 670.2545454545455L809.8909090909091 716.8L735.4181818181818 716.8L735.4181818181818 670.2545454545455zM65.1636363636364 260.6545454545456L429.6145454545454 260.6545454545456C432.2024727272727 286.710690909091 438.4302545454546 311.6776727272727 447.6741818181818 335.1272727272728L65.1636363636364 335.1272727272728L65.1636363636364 260.6545454545456zM18.6181818181818 204.8000000000001L18.6181818181818 130.3272727272728L447.5904 130.3272727272728C438.3464727272728 153.7675636363637 432.2117818181818 178.7624727272728 429.6238545454546 204.8000000000001L18.6181818181818 204.8000000000001z" />
    <glyph glyph-name="bank"
      unicode="&#xEA05;"
      horiz-adv-x="1024" d="M170.6666666666667 554.6666666666667L170.6666666666667 256L341.3333333333333 256L341.3333333333333 554.6666666666667L170.6666666666667 554.6666666666667zM426.6666666666667 554.6666666666667L426.6666666666667 256L597.3333333333333 256L597.3333333333333 554.6666666666667L426.6666666666667 554.6666666666667zM85.3333333333333 85.3333333333334L938.6666666666666 85.3333333333334L938.6666666666666 170.6666666666668L85.3333333333333 170.6666666666668L85.3333333333333 85.3333333333334zM682.6666666666666 554.6666666666667L682.6666666666666 256L853.3333333333333 256L853.3333333333333 554.6666666666667L682.6666666666666 554.6666666666667zM512 938.6666666666666L85.3333333333333 725.3333333333334L85.3333333333333 640L938.6666666666666 640L938.6666666666666 725.3333333333334L512 938.6666666666666z" />
    <glyph glyph-name="calendar"
      unicode="&#xEA06;"
      horiz-adv-x="1024" d="M256 938.6666666666666L256 853.3333333333334L768 853.3333333333334L768 938.6666666666666L853.3333333333333 938.6666666666666L853.3333333333333 853.3333333333334C898.031744 853.3333333333334 934.9901738666669 821.9936738133333 938.4086656 782.5208093866667L938.6666666666666 776.5417813333333L938.6666666666666 162.1248853333334C938.6666666666666 121.8967168000002 903.836736 88.6414293333335 859.9768191999999 85.5654784000001L853.3333333333333 85.3333333333334L170.6666666666667 85.3333333333334C125.9276189866667 85.3333333333334 89.0059562666667 116.6729941333333 85.5910562133333 156.145856L85.3333333333333 162.1248853333334L85.3333333333333 776.5417813333333C85.3333333333333 816.7699502933333 120.1245653333333 850.0252369066667 164.0176512 853.1011865600001L170.6666666666667 853.3333333333334L170.6666666666667 938.6666666666666L256 938.6666666666666zM833.8133333333333 639.5349333333334L190.1866666666667 639.5349333333334C180.59140736 639.5349333333334 172.6480328533334 632.9244629333334 171.0012987733333 624.2036578133334L170.688 620.8432230400001L170.688 188.8524970666667C170.688 179.7107029333333 177.5652347733333 172.0844757333333 186.6749482666667 170.5026218666667L190.1866666666667 170.2016000000001L833.8133333333333 170.2016000000001C843.4085930666666 170.2016000000001 851.3856810666666 176.8120704000001 853.0399061333333 185.5042133333334L853.3546666666666 188.8524970666667L853.3546666666666 620.8432230400001C853.3546666666666 631.1685563733333 844.608 639.5349333333334 833.8133333333333 639.5349333333334z" />
    <glyph glyph-name="camera"
      unicode="&#xEA07;"
      horiz-adv-x="1024" d="M858.8387096774193 743.2258064516129H710.1935483870967V746.5290322580645C710.1935483870967 802.683870967742 677.1612903225806 842.3225806451612 627.6129032258065 842.3225806451612H399.6903225806452C350.141935483871 842.3225806451612 313.8064516129033 802.683870967742 313.8064516129033 746.5290322580645V743.2258064516129H165.1612903225807C118.9161290322581 743.2258064516129 82.5806451612903 706.8903225806453 82.5806451612903 660.6451612903226V231.225806451613C82.5806451612903 184.9806451612904 118.9161290322581 148.6451612903226 165.1612903225807 148.6451612903226H858.8387096774193C905.0838709677417 148.6451612903226 941.4193548387096 184.9806451612904 941.4193548387096 231.225806451613V660.6451612903226C941.4193548387096 706.8903225806453 905.0838709677417 743.2258064516129 858.8387096774193 743.2258064516129zM379.8709677419355 746.5290322580645C379.8709677419355 753.1354838709677 379.8709677419355 776.258064516129 399.6903225806452 776.258064516129H627.6129032258065C644.1290322580645 776.258064516129 644.1290322580645 753.1354838709678 644.1290322580645 746.5290322580645V743.2258064516129L379.8709677419355 746.5290322580645L379.8709677419355 746.5290322580645zM165.1612903225807 677.1612903225807H313.8064516129033H379.8709677419355H644.1290322580645H710.1935483870967H858.8387096774193C868.7483870967742 677.1612903225807 875.3548387096774 670.5548387096774 875.3548387096774 660.6451612903226V578.0645161290322H637.5225806451613C604.4903225806452 607.7935483870967 558.2451612903226 624.3096774193548 512 624.3096774193548S419.5096774193549 607.7935483870967 386.4774193548387 578.0645161290322H148.6451612903226V660.6451612903226C148.6451612903226 670.5548387096774 155.2516129032258 677.1612903225807 165.1612903225807 677.1612903225807zM512 558.2451612903226C581.3677419354839 558.2451612903226 637.5225806451613 502.0903225806452 637.5225806451613 432.7225806451613S581.3677419354839 307.2000000000001 512 307.2000000000001S386.4774193548387 363.3548387096775 386.4774193548387 432.7225806451613S442.6322580645161 558.2451612903226 512 558.2451612903226zM858.8387096774193 214.7096774193549H165.1612903225807C155.2516129032258 214.7096774193549 148.6451612903226 221.3161290322581 148.6451612903226 231.225806451613V512H336.9290322580645C327.0193548387096 488.8774193548387 320.4129032258064 459.1483870967742 320.4129032258064 432.7225806451613C320.4129032258064 327.0193548387098 406.2967741935484 241.1354838709678 512 241.1354838709678S703.5870967741936 327.0193548387098 703.5870967741936 432.7225806451613C703.5870967741936 462.4516129032259 696.9806451612903 488.8774193548387 687.0709677419355 512H875.3548387096774V231.225806451613C875.3548387096774 221.3161290322581 868.7483870967742 214.7096774193549 858.8387096774193 214.7096774193549z" />
    <glyph glyph-name="card-add"
      unicode="&#xEA08;"
      horiz-adv-x="1236.7792207792209" d="M199.4805194805195 465.4545454545454L412.2597402597403 465.4545454545454L412.2597402597403 558.5454545454545L199.4805194805195 558.5454545454545zM1037.2987012987014 758.0259740259739L93.0909090909091 758.0259740259739L93.0909090909091 844.3079480519481C93.0909090909091 885.2812467532467 132.455064935065 917.6103896103896 171.5931428571429 917.6103896103896L958.7964675324675 917.6103896103896C997.907948051948 917.6103896103896 1037.2987012987014 885.2812467532467 1037.2987012987014 844.3079480519481L1037.2987012987014 758.0259740259739zM958.7964675324675 1024L171.5931428571429 1024C76.9595844155844 1024 0 943.4231688311688 0 844.3079480519481L0 379.1991688311688C0 280.0839480519481 76.9595844155844 199.4805194805194 171.5931428571429 199.4805194805194L528.1313246753248 199.4805194805194C516.2422857142858 233.0996363636363 508.7684155844156 268.7933506493506 506.3347532467533 305.8701298701299L171.5931428571429 305.8701298701299C132.455064935065 305.8701298701299 93.0909090909091 338.2391688311688 93.0909090909091 379.1991688311688L93.0909090909091 664.5892987012987L683.2739740259741 664.5892987012987C746.5624935064935 706.7860779220779 822.5512727272727 731.4285714285713 904.3116883116884 731.4285714285713C988.3328831168832 731.4285714285713 1066.0903896103898 705.2168311688312 1130.3896103896104 660.8656623376623L1130.3896103896104 844.3079480519481C1130.3896103896104 943.4231688311688 1053.430025974026 1024 958.7964675324675 1024L958.7964675324675 1024zM944.2077922077922 372.3636363636364L944.2077922077922 478.7931428571428C944.2077922077922 493.4483116883116 932.3054545454546 505.3506493506493 917.636987012987 505.3506493506493L890.9863896103898 505.3506493506493C876.3578181818182 505.3506493506493 864.4155844155845 493.4616103896104 864.4155844155845 478.7931428571428L864.4155844155845 372.3636363636364L757.9860779220779 372.3636363636364C743.3309090909091 372.3636363636364 731.4285714285714 360.4612987012986 731.4285714285714 345.7928311688312L731.4285714285714 319.1422337662338C731.4285714285714 304.5136623376624 743.3176103896104 292.5714285714286 757.9860779220779 292.5714285714286L864.4155844155845 292.5714285714286L864.4155844155845 186.141922077922C864.4155844155845 171.4867532467531 876.317922077922 159.5844155844155 890.9863896103898 159.5844155844155L917.636987012987 159.5844155844155C932.2655584415586 159.5844155844155 944.2077922077922 171.4734545454546 944.2077922077922 186.141922077922L944.2077922077922 292.5714285714286L1050.6372987012987 292.5714285714286C1065.2924675324678 292.5714285714286 1077.1948051948052 304.4737662337663 1077.1948051948052 319.1422337662338L1077.1948051948052 345.7928311688312C1077.1948051948052 360.4214025974026 1065.3057662337662 372.3636363636364 1050.6372987012987 372.3636363636364L944.2077922077922 372.3636363636364zM904.3116883116884 0C720.6965194805196 0 571.8441558441559 148.8523636363635 571.8441558441559 332.4675324675325C571.8441558441559 516.0827012987013 720.6965194805196 664.9350649350649 904.3116883116884 664.9350649350649C1087.9268571428572 664.9350649350649 1236.7792207792209 516.0827012987013 1236.7792207792209 332.4675324675325C1236.7792207792209 148.8523636363635 1087.9268571428572 0 904.3116883116884 0L904.3116883116884 0z" />
    <glyph glyph-name="card-confirm"
      unicode="&#xEA09;"
      horiz-adv-x="1236.7792207792209" d="M1037.2987012987014 758.0259740259739L1037.2987012987014 844.3079480519481C1037.2987012987014 885.2812467532467 997.907948051948 917.6103896103896 958.7964675324675 917.6103896103896L171.5931428571429 917.6103896103896C132.455064935065 917.6103896103896 93.0909090909091 885.2812467532467 93.0909090909091 844.3079480519481L93.0909090909091 758.0259740259739L1037.2987012987014 758.0259740259739zM958.7964675324675 1024C1053.430025974026 1024 1130.3896103896104 943.4231688311688 1130.3896103896104 844.3079480519481L1130.3896103896104 660.8656623376623C1066.0903896103898 705.2168311688312 988.3328831168832 731.4285714285713 904.3116883116884 731.4285714285713C822.5512727272727 731.4285714285713 746.5624935064935 706.7860779220779 683.2739740259741 664.5892987012987L93.0909090909091 664.5892987012987L93.0909090909091 379.1991688311688C93.0909090909091 338.2391688311688 132.455064935065 305.8701298701299 171.5931428571429 305.8701298701299L506.3347532467533 305.8701298701299C508.7684155844156 268.7933506493506 516.2422857142858 233.0996363636363 528.1313246753248 199.4805194805194L171.5931428571429 199.4805194805194C76.9595844155844 199.4805194805194 0 280.0839480519481 0 379.1991688311688L0 844.3079480519481C0 943.4231688311688 76.9595844155844 1024 171.5931428571429 1024L958.7964675324675 1024zM199.4805194805195 465.4545454545454L412.2597402597403 465.4545454545454L412.2597402597403 558.5454545454545L199.4805194805195 558.5454545454545zM904.3116883116884 0C1087.9268571428572 0 1236.7792207792209 148.8523636363635 1236.7792207792209 332.4675324675325C1236.7792207792209 516.0827012987013 1087.9268571428572 664.9350649350649 904.3116883116884 664.9350649350649C720.6965194805196 664.9350649350649 571.8441558441559 516.0827012987013 571.8441558441559 332.4675324675325C571.8441558441559 148.8523636363635 720.6965194805196 0 904.3116883116884 0M749.568 364.6503896103896L718.980987012987 333.5048311688312C709.499012987013 323.8366753246753 709.6452987012988 308.1974025974025 719.3001558441559 298.7154285714286L845.0792727272727 175.2369870129869C846.3559480519482 174.0135064935065 847.7124155844157 172.9629090909091 849.1619740259741 172.0585974025974C858.7237402597403 165.5821298701297 871.8894545454546 166.5396363636363 880.3474285714285 174.9976103896104L1100.0552727272727 394.6921558441559C1109.617038961039 404.2672207792208 1109.617038961039 419.9197922077922 1100.0552727272727 429.4682597402597L1069.1889870129871 460.3478441558441C1059.6272207792208 469.8963116883117 1043.9613506493508 469.9096103896104 1034.3995844155845 460.3478441558441L862.4074805194806 288.3690389610389L784.3574025974026 364.9562597402597C774.7025454545454 374.4515324675324 759.0366753246753 374.3052467532467 749.568 364.6503896103896" />
    <glyph glyph-name="card"
      unicode="&#xEA0A;"
      horiz-adv-x="1408" d="M1408 800.84151808L1408 223.2004928C1408 100.1104384 1312.1353152 0 1194.2656 0L213.7344 0C95.86468544 0 0 100.1104384 0 223.2004928L0 800.84151808C0 923.93156928 95.86468544 1024 213.7344 1024L1194.2656 1024C1312.1353152 1024 1408 923.93156928 1408 800.84151808L1408 800.84151808zM125.71428544 800.84151808L125.71428544 708.92307712L1282.2857152 708.92307712L1282.2857152 800.84151808C1282.2857152 851.71593856 1242.9824 892.7179487999999 1194.2656 892.7179487999999L213.7344 892.7179487999999C164.97737152 892.7179487999999 125.71428544 851.71593856 125.71428544 800.84151808L125.71428544 800.84151808zM1282.2857152 223.2004928L1282.2857152 577.64102592L125.71428544 577.64102592L125.71428544 223.2004928C125.71428544 172.3260736 164.97737152 131.2820544 213.7344 131.2820544L1194.2656 131.2820544C1242.9824 131.2820544 1282.2857152 172.3260736 1282.2857152 223.2004928L1282.2857152 223.2004928zM256 448L512 448L512 320L256 320L256 448z" />
    <glyph glyph-name="cash"
      unicode="&#xEA0B;"
      horiz-adv-x="1024" d="M925.5384615384615 866.4615384615385H98.4615384615385C43.3230769230769 866.4615384615385 0 823.1384615384616 0 768V256C0 200.8615384615384 43.3230769230769 157.5384615384614 98.4615384615385 157.5384615384614H925.5384615384615C980.6769230769232 157.5384615384614 1024 200.8615384615384 1024 256V768C1024 823.1384615384616 980.6769230769232 866.4615384615385 925.5384615384615 866.4615384615385zM78.7692307692308 256V768C78.7692307692308 779.8153846153846 86.6461538461539 787.6923076923076 98.4615384615385 787.6923076923076H389.9076923076924C279.6307692307693 740.4307692307692 204.8 630.1538461538462 204.8 504.123076923077C204.8 389.9076923076924 267.8153846153847 287.5076923076923 362.3384615384616 236.3076923076923H98.4615384615385C86.6461538461539 236.3076923076923 78.7692307692308 244.1846153846153 78.7692307692308 256zM512 736.4923076923077C638.0307692307692 736.4923076923077 740.4307692307693 634.0923076923077 740.4307692307693 508.0615384615385C740.4307692307693 382.0307692307691 638.0307692307692 279.6307692307693 512 279.6307692307693S283.5692307692308 382.0307692307694 283.5692307692308 508.0615384615385C283.5692307692308 630.1538461538462 385.9692307692308 736.4923076923077 512 736.4923076923077zM945.2307692307692 256C945.2307692307692 244.1846153846153 937.3538461538462 236.3076923076923 925.5384615384615 236.3076923076923H661.6615384615385C756.1846153846154 287.5076923076923 819.2 389.9076923076922 819.2 504.123076923077C819.2 630.1538461538462 744.3692307692309 740.4307692307692 634.0923076923078 787.6923076923077H925.5384615384615C937.3538461538462 787.6923076923076 945.2307692307692 779.8153846153846 945.2307692307692 768V256zM421.4153846153846 429.2923076923077L401.7230769230769 401.723076923077C421.4153846153846 382.0307692307694 452.923076923077 366.2769230769231 480.4923076923077 362.3384615384616L476.5538461538462 315.0769230769231H500.1846153846154C512 315.0769230769231 515.9384615384615 334.7692307692307 515.9384615384615 342.6461538461538L519.876923076923 366.2769230769231C571.0769230769231 370.2153846153847 610.4615384615385 401.723076923077 614.4 452.9230769230769C618.3384615384615 504.123076923077 578.9538461538461 523.8153846153846 535.6307692307693 535.6307692307691L543.5076923076923 606.5230769230769C559.2615384615385 602.5846153846154 582.8923076923077 582.8923076923077 594.7076923076924 602.5846153846154L610.4615384615385 626.2153846153847C594.7076923076924 641.9692307692308 571.0769230769231 657.7230769230769 547.4461538461538 661.6615384615384L551.3846153846155 708.9230769230769H527.7538461538462C519.876923076923 708.9230769230769 512 685.2923076923078 512 681.3538461538462L512 657.7230769230769C468.6769230769231 653.7846153846153 425.3538461538462 630.1538461538462 417.4769230769231 582.8923076923077C409.6 527.7538461538461 448.9846153846155 504.1230769230768 496.2461538461538 492.3076923076923L488.3692307692308 417.4769230769231C468.6769230769231 421.4153846153846 437.1692307692308 452.9230769230769 421.4153846153846 429.2923076923077zM531.6923076923077 480.4923076923077C567.1384615384616 464.7384615384615 563.2 421.4153846153846 523.8153846153847 417.4769230769231L531.6923076923077 480.4923076923077zM504.123076923077 606.5230769230769L500.1846153846154 547.4461538461538C464.7384615384616 563.2 468.6769230769231 602.5846153846154 504.123076923077 606.5230769230769z" />
    <glyph glyph-name="chat"
      unicode="&#xEA0C;"
      horiz-adv-x="989.8666666666667" d="M467.6592503466666 341.3333333333334L912.6899234133334 341.3333333333334C917.69177088 341.3333333333334 921.6 345.2131498666668 921.6 349.9038583466667L921.6 947.162809344C921.6 951.8831895893334 917.69444352 955.7333333333333 912.5187618133332 955.7333333333333L77.3479038293333 955.7333333333333C72.18943488 955.7333333333333 68.2666666666667 951.8507874986668 68.2666666666667 947.162809344L68.2666666666667 349.9038583466667C68.2666666666667 345.1818939733334 72.169817088 341.3333333333334 77.3390769493333 341.3333333333334L271.995961344 341.3333333333334L271.9959668053333 175.9453593600001L467.6592503466666 341.3333333333334zM77.3390769493333 273.0666666666667C34.6807340373333 273.0666666666667 0 307.2623445333334 0 349.9038583466667L0 947.162809344C0 989.7118211413334 34.643395584 1024 77.3479038293333 1024L912.5187618133332 1024C955.1804552533332 1024 989.8666666666666 989.8059076266666 989.8666666666666 947.162809344L989.8666666666666 349.9038583466667C989.8666666666666 307.3985570133334 955.2833570133334 273.0666666666667 912.6899234133334 273.0666666666667L492.6458811733333 273.0666666666667L203.7293049173333 28.85464064L203.7292967253334 273.0666666666667L77.3390769493333 273.0666666666667zM204.8 648.5333333333333A68.26666666666667 68.26666666666667 0 0 1 341.3333333333333 648.5333333333333A68.26666666666667 68.26666666666667 0 0 1 204.8 648.5333333333333M426.6666666666667 648.5333333333333A68.26666666666667 68.26666666666667 0 0 1 563.2 648.5333333333333A68.26666666666667 68.26666666666667 0 0 1 426.6666666666667 648.5333333333333M648.5333333333333 648.5333333333333A68.26666666666667 68.26666666666667 0 0 1 785.0666666666666 648.5333333333333A68.26666666666667 68.26666666666667 0 0 1 648.5333333333333 648.5333333333333" />
    </font>
</defs>
</svg>
