<svg width="490" height="131" viewBox="0 0 490 131" xmlns="http://www.w3.org/2000/svg"><title>Logo_Full_Horizontal_RGB_White</title><path d="M360.77 32.057h-15.283c-.625 0-1.13.505-1.13 1.123v47.412c0 .62.505 1.122 1.13 1.122h15.284c.627 0 1.13-.502 1.13-1.122V33.18c0-.618-.503-1.123-1.13-1.123m68.294-14.572H413.78c-.624 0-1.13.502-1.13 1.123v61.986a1.13 1.13 0 0 0 1.13 1.123h15.284a1.13 1.13 0 0 0 1.132-1.123V18.608c0-.62-.507-1.123-1.132-1.123m-75.958-9.63c-5.35 0-9.69 4.31-9.69 9.63 0 5.316 4.34 9.63 9.69 9.63 5.352 0 9.69-4.314 9.69-9.63 0-5.32-4.338-9.63-9.69-9.63M489.992 38.29v-5.092c0-.622-.507-1.123-1.13-1.123h-15.285c-.623 0-1.13.5-1.13 1.123V59.05c0 5.417-2.955 8.258-7.112 8.258-4.154 0-6.832-2.84-6.832-8.258V33.198c0-.622-.506-1.123-1.13-1.123h-15.285c-.625 0-1.128.5-1.128 1.123V59.05c0 10.195 1.46 15.032 3.196 17.322 3.024 3.998 7.515 6.445 13.423 6.445 5.325 0 9.005-2.466 12.27-5.015 1.034-.807 2.575-1.273 2.575.937v4.424c-.09 2.968-2.036 5.484-4.484 6.806l-.174.09c-1.178.597-2.5.952-3.92.91-.04 0-3.392-.03-5.208-.334-.677-.11-1.276.32-1.336 1l-1.14 13.122c-.05.59.36 1.13.947 1.224 5.727.893 11.8.715 18.184-1.47C485.382 101.066 490 93.617 490 82.838V38.345c0-.014-.008-.04-.008-.056m-88.254-6.234h-6.892c-.625 0-1.13-.505-1.13-1.123V18.607c0-.62-.508-1.123-1.13-1.123h-15.283a1.13 1.13 0 0 0-1.133 1.123v12.325c0 .62-.505 1.124-1.13 1.124h-4.75c-.625 0-1.132.502-1.132 1.123v13.03c0 .62.507 1.123 1.132 1.123h4.75c.625 0 1.13.5 1.13 1.123v21.52c0 7.09 4.908 12.838 12.922 12.838 5.86 0 10.898-.91 12.99-1.913.457-.22.787-.585.787-1.077V69.28c0-.69-.617-1.21-1.305-1.108-2.525.375-7.85 1.522-7.85-5.145v-14.57c0-.622.505-1.123 1.13-1.123h6.892c.625 0 1.13-.502 1.13-1.123V33.18c0-.622-.505-1.124-1.13-1.124M163.094 48.178c6.076 0 9.575-2.927 9.575-7.594V40.4c0-5.03-3.684-7.593-9.67-7.593h-10.566c-.623 0-1.127.5-1.127 1.12v13.13c0 .62.504 1.12 1.127 1.12h10.66zm-29.65-29.625c0-.618.504-1.12 1.127-1.12h29.353c9.854 0 16.666 2.564 20.995 6.956 3.775 3.656 5.707 8.6 5.707 14.913v.18c0 9.29-4.725 15.613-12.047 19.128-.627.3-.856 1.063-.465 1.63l13.423 19.49a1.12 1.12 0 0 1-.93 1.753H172.93a1.52 1.52 0 0 1-1.265-.673l-11.957-17.867a1.932 1.932 0 0 0-1.61-.857h-5.663c-.623 0-1.127.5-1.127 1.12v17.158c0 .618-.506 1.12-1.128 1.12h-15.61a1.123 1.123 0 0 1-1.125-1.12v-61.81zM229.79 51.5c0 .616-.474 1.115-1.056 1.115h-15.616c-.582 0-1.055-.5-1.055-1.115v-.002c0-4.853 3.835-8.68 8.792-8.68 5.343 0 8.934 3.827 8.934 8.68v.002zm-9.696-20.437c-15.555 0-25.208 12.127-25.208 26.42 0 14.29 10.58 25.332 25.208 25.332 13.093 0 20.848-5.663 24.39-14.125.304-.73-.27-1.54-1.066-1.54H230.04c-.54 0-1.04.24-1.415.624-1.728 1.787-3.904 2.95-6.953 2.95 0 0-.015-.005-.023-.005l-.006.003c-5.692 0-10.187-2.948-10.187-7.8 0-.616.5-1.116 1.12-1.116h.034l.005-.003h32a1.13 1.13 0 0 0 1.13-1.125v-3.2c0-14.29-8.885-26.42-25.652-26.42zm96.243-.09c-6.85 0-11.745 2.752-15.91 7.19a.87.87 0 0 1-1.38-.13c-2.797-4.507-7.63-7.06-13.83-7.06-.217 0-.44 0-.672.006-5.13.19-9.673 2.594-12.64 6.25-.518.635-1.55.284-1.55-.536V33.16c0-.6-.492-1.085-1.095-1.085h-15.322c-.624 0-1.13.5-1.13 1.123v47.394c0 .62.506 1.123 1.13 1.123h15.284c.625 0 1.132-.502 1.132-1.123V54.74c0-5.417 2.953-8.26 7.108-8.26 4.156 0 6.834 2.843 6.834 8.26v25.85c0 .62.505 1.123 1.13 1.123h15.283c.622 0 1.13-.502 1.13-1.123V54.74c0-5.417 3.047-8.26 7.2-8.26 4.156 0 6.836 2.843 6.836 8.26v25.85c0 .62.503 1.123 1.13 1.123h15.282c.622 0 1.128-.502 1.128-1.123V49.14c0-11.562-6.46-18.17-17.08-18.17M91.17 65.27L53.002 37.54a5.49 5.49 0 0 0-6.45 0l-17.01 12.357a4.566 4.566 0 0 1-3.417.82 4.557 4.557 0 0 1-2.997-1.836 4.55 4.55 0 0 1-.82-3.414 4.566 4.566 0 0 1 1.835-2.998l12.06-8.762h.004l10.498-7.628c5.866-4.264 13.952-3.735 19.198 1.263 1.16 1.108 2.967 1.176 4.263.233l21-15.257V65.27zm-.482 10.84l-.055.364c-.128.8-.662 1.958-1.248 2.515-1.544 1.47-3.807 1.587-5.453.39L65.302 65.83l-.135-.097c-1.13-.822-2.974-.812-4.002.136a3.11 3.11 0 0 0 .26 4.82l.227.165L78.737 83.27c.95.692 1.653 1.715 1.813 2.883.225 1.612-.426 3.126-1.703 4.055l-.39.285a4.245 4.245 0 0 1-4.987 0L52.283 75.097c-1.13-.82-2.978-.81-4.004.136a3.108 3.108 0 0 0 .256 4.82L65.85 92.63c.953.693 1.652 1.718 1.812 2.884.228 1.615-.422 3.127-1.7 4.057l-.394.287a4.242 4.242 0 0 1-4.984 0l-3.86-2.806-17.33-12.59c-1.128-.82-2.975-.81-4 .14a3.105 3.105 0 0 0 .257 4.816l17.315 12.58c.95.69 1.65 1.715 1.814 2.88.224 1.616-.427 3.13-1.705 4.06l-.38.276a4.228 4.228 0 0 1-4.49.307L6.768 79.41V12.316L24.774 25.4l5.675 4.12-10.285 7.473a11.277 11.277 0 0 0-4.54 7.413 11.276 11.276 0 0 0 2.028 8.454 11.297 11.297 0 0 0 7.412 4.544 11.55 11.55 0 0 0 1.8.142 11.28 11.28 0 0 0 6.657-2.172l14.382-10.448a3.18 3.18 0 0 1 3.745 0l37.734 27.428a4.213 4.213 0 0 1 1.303 3.755zm-4.37-68.64l-17.1 12.428a1.572 1.572 0 0 1-1.776.062 21.82 21.82 0 0 0-23.214-.35 3.47 3.47 0 0 0-.633.358l-7.39 5.37L11.62 7.47h74.7zm10.628-5.777a3.376 3.376 0 0 0-2.394-.99H3.384A3.383 3.383 0 0 0 0 4.087v77.05c0 1.082.52 2.098 1.393 2.736l43.855 31.872h.002a6.323 6.323 0 0 0 7.437 0l43.854-31.86a3.388 3.388 0 0 0 1.4-2.74V4.09c0-.898-.357-1.76-.993-2.395zM148.45 113.43c0-2.296-1.685-3.803-4.053-3.803h-5.777v7.57h5.777c2.368 0 4.054-1.506 4.054-3.767zm-14.028 16.434V105.93h10.55c5.023 0 7.786 3.41 7.786 7.5 0 4.055-2.8 7.464-7.787 7.464h-6.35v8.97h-4.197zm21.028 0v-17.33h3.767v2.51c1.327-1.65 3.408-2.94 5.633-2.94v3.73a5.18 5.18 0 0 0-1.148-.107c-1.615 0-3.732 1.076-4.485 2.332v11.803h-3.768m24.578-8.683c0-3.05-1.758-5.74-4.988-5.74-3.193 0-4.987 2.69-4.987 5.74 0 3.087 1.794 5.778 4.987 5.778 3.23 0 4.988-2.69 4.988-5.777zm-13.886 0c0-4.987 3.373-9.077 8.898-9.077 5.526 0 8.9 4.09 8.9 9.078 0 4.953-3.374 9.116-8.9 9.116-5.525 0-8.898-4.163-8.898-9.114zm42.198 8.684V118.56c0-1.865-.826-3.12-2.87-3.12-1.688 0-3.267 1.148-4.02 2.296v12.128h-3.768V118.56c0-1.865-.79-3.12-2.835-3.12-1.686 0-3.23 1.183-4.018 2.296v12.128h-3.77v-17.33h3.77v2.332c.75-1.04 3.012-2.763 5.667-2.763 2.583 0 4.162 1.292 4.736 3.157.97-1.543 3.266-3.157 5.885-3.157 3.157 0 4.987 1.722 4.987 5.238v12.525h-3.768m7.933 0h3.768v-17.33h-3.768v17.33zm-.43-21.78a2.327 2.327 0 0 1 2.332-2.333 2.327 2.327 0 0 1 2.332 2.332c0 1.29-1.04 2.332-2.332 2.332a2.327 2.327 0 0 1-2.332-2.332zm7.607 19.483l1.722-2.69c1.22 1.254 3.622 2.403 5.847 2.403 2.26 0 3.444-.93 3.444-2.294 0-3.41-10.476-.97-10.476-7.644 0-2.833 2.44-5.237 6.817-5.237 2.943 0 5.168 1.04 6.71 2.404l-1.577 2.654c-1.04-1.15-2.943-2.08-5.132-2.08-1.972 0-3.192.93-3.192 2.15 0 3.052 10.476.756 10.476 7.645 0 3.084-2.547 5.417-7.212 5.417-2.978 0-5.633-.97-7.427-2.727m25.405-12.38c-3.192 0-4.7 2.474-4.843 4.555h9.76c-.107-2.045-1.507-4.556-4.916-4.556zm-8.754 5.99c0-5.022 3.66-9.077 8.79-9.077 5.204 0 8.505 3.947 8.505 9.4v.934h-13.346c.287 2.583 2.225 4.772 5.49 4.772 1.722 0 3.696-.684 4.952-1.94l1.722 2.476c-1.758 1.65-4.306 2.548-7.033 2.548-5.238 0-9.078-3.624-9.078-9.114zm18.838 6.388l1.723-2.69c1.22 1.254 3.623 2.403 5.848 2.403 2.26 0 3.445-.93 3.445-2.294 0-3.41-10.478-.97-10.478-7.644 0-2.833 2.44-5.237 6.818-5.237 2.942 0 5.167 1.04 6.71 2.404l-1.58 2.654c-1.04-1.15-2.94-2.08-5.13-2.08-1.974 0-3.194.93-3.194 2.15 0 3.052 10.478.756 10.478 7.645 0 3.084-2.548 5.417-7.212 5.417-2.978 0-5.634-.97-7.428-2.727m44.89-9.69c0-4.593-2.87-8.253-8.18-8.253h-4.74v16.54h4.7c5.205 0 8.22-3.73 8.22-8.287zm-17.117 11.984V105.93h8.898c7.5 0 12.524 4.953 12.524 11.95 0 7.068-5.026 11.984-12.49 11.984h-8.934zm32.366-14.674c-3.193 0-4.7 2.474-4.844 4.555h9.76c-.11-2.045-1.51-4.556-4.918-4.556zm-8.755 5.99c0-5.022 3.66-9.077 8.79-9.077 5.204 0 8.505 3.947 8.505 9.4v.934h-13.348c.287 2.583 2.225 4.772 5.49 4.772 1.722 0 3.695-.684 4.952-1.94l1.722 2.476c-1.76 1.65-4.308 2.548-7.035 2.548-5.24 0-9.078-3.624-9.078-9.114zm20.31 8.684h3.77V105.93h-3.77zm7.93 0h3.767v-17.33h-3.768v17.33zm-.43-21.78a2.327 2.327 0 0 1 2.33-2.332 2.327 2.327 0 0 1 2.33 2.332c0 1.29-1.04 2.332-2.33 2.332a2.327 2.327 0 0 1-2.332-2.332zm13.634 21.78l-7.068-17.33h4.055l5.057 12.988 5.06-12.988h4.018l-7.07 17.33h-4.054m19.773-14.674c-3.193 0-4.7 2.474-4.844 4.555h9.76c-.11-2.045-1.51-4.556-4.918-4.556zm-8.755 5.99c0-5.022 3.66-9.077 8.792-9.077 5.202 0 8.503 3.947 8.503 9.4v.934h-13.348c.287 2.583 2.225 4.772 5.49 4.772 1.723 0 3.696-.684 4.952-1.94l1.722 2.476c-1.76 1.65-4.307 2.548-7.035 2.548-5.238 0-9.078-3.624-9.078-9.114zm20.31 8.684v-17.33h3.768v2.51c1.327-1.65 3.408-2.94 5.633-2.94v3.73a5.19 5.19 0 0 0-1.15-.107c-1.615 0-3.73 1.076-4.485 2.332v11.803h-3.768m18.73-14.673c-3.192 0-4.7 2.474-4.843 4.555h9.76c-.108-2.045-1.507-4.556-4.916-4.556zm-8.754 5.99c0-5.022 3.66-9.077 8.79-9.077 5.204 0 8.505 3.947 8.505 9.4v.934H397.01c.287 2.583 2.225 4.772 5.49 4.772 1.722 0 3.696-.684 4.95-1.94l1.724 2.476c-1.758 1.65-4.306 2.548-7.033 2.548-5.236 0-9.076-3.624-9.076-9.114zm32.51 3.446v-6.854c-.825-1.292-2.69-2.332-4.45-2.332-3.014 0-4.916 2.404-4.916 5.74 0 3.374 1.902 5.778 4.916 5.778 1.76 0 3.625-1.04 4.45-2.332zm0 5.238v-2.368c-1.328 1.723-3.302 2.8-5.562 2.8-4.412 0-7.677-3.374-7.677-9.115 0-5.596 3.23-9.076 7.68-9.076 2.187 0 4.197.968 5.56 2.835v-9.008h3.768v23.934h-3.766z" fill="#FFF" fill-rule="evenodd"/></svg>