<svg id="Layer_2" xmlns="http://www.w3.org/2000/svg" xmlns:xlink="http://www.w3.org/1999/xlink" viewBox="0 0 490 131"><style>.st0{clip-path:url(#SVGID_2_)}.st1{clip-path:url(#SVGID_4_)}.st1,.st2{fill:#212e61}</style><defs><path id="SVGID_1_" d="M421.5 121.3c3.8 0 5.9-1.9 5.9-4.4 0-5.6-8.6-3.8-8.6-6.3 0-1 1-1.8 2.6-1.8 1.8 0 3.4.8 4.2 1.7l1.3-2.2c-1.3-1.1-3.1-2-5.5-2-3.6 0-5.6 2-5.6 4.3 0 5.5 8.6 3.5 8.6 6.3 0 1.1-1 1.9-2.8 1.9-1.8 0-3.8-.9-4.8-2l-1.4 2.2c1.5 1.5 3.7 2.3 6.1 2.3zm-15.4-2.1c-1.7 0-3.1-1-3.1-2.6 0-1.5 1.3-2.6 3.1-2.6 1.3 0 2.6.5 3.4 1.5v2.2c-.7 1-2 1.5-3.4 1.5zm6.5 1.8v-9.4c0-3.8-2.8-5.1-5.9-5.1-2.3 0-4.3.7-6 2.3l1.3 2.1c1.2-1.2 2.6-1.8 4.2-1.8 1.9 0 3.3 1 3.3 2.6v2.1c-1.1-1.2-2.7-1.8-4.6-1.8-2.3 0-4.9 1.4-4.9 4.6 0 3.1 2.6 4.7 4.9 4.7 1.9 0 3.6-.7 4.6-1.9v1.6h3.1zm-20.8.3c3.8 0 5.9-1.9 5.9-4.4 0-5.6-8.6-3.8-8.6-6.3 0-1 1-1.8 2.6-1.8 1.8 0 3.4.8 4.2 1.7l1.3-2.2c-1.3-1.1-3.1-2-5.5-2-3.6 0-5.6 2-5.6 4.3 0 5.5 8.6 3.5 8.6 6.3 0 1.1-1 1.9-2.8 1.9-1.8 0-3.8-.9-4.8-2l-1.4 2.2c1.5 1.5 3.7 2.3 6.1 2.3zm-10.9-8.6h-8c.1-1.7 1.4-3.7 4-3.7 2.8-.1 3.9 2 4 3.7zm-3.8 8.6c2.2 0 4.3-.7 5.8-2.1l-1.4-2c-1 1-2.6 1.6-4.1 1.6-2.7 0-4.3-1.8-4.5-3.9h10.9v-.8c0-4.5-2.7-7.7-7-7.7-4.2 0-7.2 3.3-7.2 7.4.1 4.6 3.2 7.5 7.5 7.5zm-10.6-.3v-10.3c0-2.9-1.5-4.3-4.1-4.3-2.1 0-4 1.3-4.8 2.6-.5-1.5-1.8-2.6-3.9-2.6-2.2 0-4 1.4-4.6 2.3v-1.9H346V121h3.1v-10c.6-.9 1.9-1.9 3.3-1.9 1.7 0 2.3 1 2.3 2.6v9.3h3.1v-10c.6-.9 1.9-1.9 3.3-1.9 1.7 0 2.4 1 2.4 2.6v9.3h3zm-30.9-2.4c-2.6 0-4.1-2.2-4.1-4.7s1.5-4.7 4.1-4.7c2.6 0 4.1 2.2 4.1 4.7s-1.5 4.7-4.1 4.7zm0 2.7c4.5 0 7.3-3.4 7.3-7.5s-2.8-7.4-7.3-7.4-7.3 3.4-7.3 7.4c0 4.1 2.7 7.5 7.3 7.5zM322 121v-9.7c.6-1 2.4-1.9 3.7-1.9.4 0 .7 0 .9.1v-3.1c-1.8 0-3.5 1.1-4.6 2.4v-2.1h-3.1V121h3.1zm-12.7-10.4h-4.7v-6.2h4.7c1.9 0 3.3 1.2 3.3 3.1 0 1.9-1.4 3.1-3.3 3.1zm-4.8 10.4v-7.4h5.2c4.1 0 6.4-2.8 6.4-6.1 0-3.4-2.3-6.1-6.4-6.1h-8.6V121h3.4zm-21.5-2.4c-2.6 0-4.1-2.2-4.1-4.7s1.5-4.7 4.1-4.7c2.6 0 4.1 2.2 4.1 4.7-.1 2.5-1.5 4.7-4.1 4.7zm0 2.7c4.5 0 7.3-3.4 7.3-7.5s-2.8-7.4-7.3-7.4-7.3 3.4-7.3 7.4c0 4.1 2.7 7.5 7.3 7.5zm-17.2-2.7c-2.5 0-4-2-4-4.7s1.6-4.7 4-4.7c1.4 0 3 .9 3.6 1.9v5.6c-.7 1-2.2 1.9-3.6 1.9zm6.7 2.4v-19.6h-3.1v7.4c-1.1-1.5-2.8-2.3-4.6-2.3-3.6 0-6.3 2.9-6.3 7.4 0 4.7 2.7 7.5 6.3 7.5 1.9 0 3.5-.9 4.6-2.3v1.9h3.1zm-17.1 0v-10c0-2.9-1.5-4.6-4.6-4.6-2.2 0-4.1 1.1-5 2.3v-1.9h-3.1V121h3.1v-10c.7-.9 2.1-1.9 3.6-1.9 1.7 0 2.9.7 2.9 2.9v8.9h3.1zm-18.7-8.3h-8c.1-1.7 1.4-3.7 4-3.7 2.7-.1 3.9 2 4 3.7zm-3.8 8.6c2.2 0 4.3-.7 5.8-2.1l-1.4-2c-1 1-2.6 1.6-4.1 1.6-2.7 0-4.3-1.8-4.5-3.9h10.9v-.8c0-4.5-2.7-7.7-7-7.7-4.2 0-7.2 3.3-7.2 7.4.1 4.6 3.2 7.5 7.5 7.5zm-10.6-.3v-14.2h-3.1V121h3.1zm-1.5-16c1.1 0 1.9-.9 1.9-1.9 0-1.1-.9-1.9-1.9-1.9-1.1 0-1.9.9-1.9 1.9 0 1.1.8 1.9 1.9 1.9zm-5.6 16v-19.6h-3.1V121h3.1zm-13.4-2.4c-1.4 0-3-.9-3.6-1.9V111c.7-1.1 2.2-1.9 3.6-1.9 2.4 0 4 1.9 4 4.7.1 2.8-1.5 4.8-4 4.8zm1 2.7c3.7 0 6.3-2.8 6.3-7.5s-2.6-7.4-6.3-7.4c-1.9 0-3.5.9-4.6 2.3v-1.9h-3.1v19.6h3.1V119c1.2 1.5 2.8 2.3 4.6 2.3zm-11.7-.3v-10.3c0-2.9-1.5-4.3-4.1-4.3-2.1 0-4 1.3-4.8 2.6-.5-1.5-1.8-2.6-3.9-2.6-2.2 0-4 1.4-4.6 2.3v-1.9h-3.1V121h3.1v-10c.6-.9 1.9-1.9 3.3-1.9 1.7 0 2.3 1 2.3 2.6v9.3h3.1v-10c.6-.9 1.9-1.9 3.3-1.9 1.7 0 2.4 1 2.4 2.6v9.3h3zm-24.5 0v-14.2h-3.1v10c-.7.9-2.1 1.9-3.6 1.9-1.8 0-2.9-.7-2.9-2.9v-8.9h-3.1V117c0 2.9 1.5 4.5 4.6 4.5 2.2 0 4-1.1 5-2.2v1.9h3.1zm-23.2.3c3.9 0 6.4-2.1 7.9-4.4l-2.9-1.5c-.9 1.6-2.9 2.9-4.9 2.9-3.9 0-6.8-3-6.8-7.1s2.9-7.1 6.8-7.1c2.1 0 4 1.2 4.9 2.9l2.9-1.5c-1.4-2.4-3.9-4.4-7.9-4.4-5.8 0-10.3 4.1-10.3 10.2 0 5.9 4.5 10 10.3 10z"/></defs><use xlink:href="#SVGID_1_" overflow="visible" fill-rule="evenodd" clip-rule="evenodd" fill="#212e61"/><clipPath id="SVGID_2_"><use xlink:href="#SVGID_1_" overflow="visible"/></clipPath><g class="st0"><defs><path id="SVGID_3_" d="M-28.1-28.1h541.6v185.2H-28.1z"/></defs><use xlink:href="#SVGID_3_" overflow="visible" fill="#212e61"/><clipPath id="SVGID_4_"><use xlink:href="#SVGID_3_" overflow="visible"/></clipPath><path class="st1" d="M129.7 97.7h301v32h-301z"/></g><g id="XMLID_55_"><path id="XMLID_72_" class="st2" d="M360.8 32.1h-15.3c-.6 0-1.1.5-1.1 1.1v47.4c0 .6.5 1.1 1.1 1.1h15.3c.6 0 1.1-.5 1.1-1.1V33.2c0-.6-.5-1.1-1.1-1.1"/><path id="XMLID_71_" class="st2" d="M429.1 17.5h-15.3c-.6 0-1.1.5-1.1 1.1v62c0 .6.5 1.1 1.1 1.1h15.3c.6 0 1.1-.5 1.1-1.1v-62c0-.6-.5-1.1-1.1-1.1"/><path id="XMLID_70_" class="st2" d="M353.1 7.9c-5.4 0-9.7 4.3-9.7 9.6s4.3 9.6 9.7 9.6c5.4 0 9.7-4.3 9.7-9.6s-4.3-9.6-9.7-9.6"/><path id="XMLID_69_" class="st2" d="M490 38.3v-5.1c0-.6-.5-1.1-1.1-1.1h-15.3c-.6 0-1.1.5-1.1 1.1v25.9c0 5.4-3 8.3-7.1 8.3-4.2 0-6.8-2.8-6.8-8.3V33.2c0-.6-.5-1.1-1.1-1.1h-15.3c-.6 0-1.1.5-1.1 1.1v25.9c0 10.2 1.5 15 3.2 17.3 3 4 7.5 6.4 13.4 6.4 5.3 0 9-2.5 12.3-5 1-.8 2.6-1.3 2.6.9v4.4c-.1 3-2 5.5-4.5 6.8-.1 0-.1.1-.2.1-1.2.6-2.5 1-3.9.9 0 0-3.4 0-5.2-.3-.7-.1-1.3.3-1.3 1l-1.1 13.1c-.1.6.4 1.1.9 1.2 5.7.9 11.8.7 18.2-1.5 10.1-3.4 14.7-10.9 14.7-21.7l-.2-44.4c0 .1 0 0 0 0"/><path id="XMLID_68_" class="st2" d="M401.7 32.1h-6.9c-.6 0-1.1-.5-1.1-1.1V18.6c0-.6-.5-1.1-1.1-1.1h-15.3c-.6 0-1.1.5-1.1 1.1V31c0 .6-.5 1.1-1.1 1.1h-4.7c-.6 0-1.1.5-1.1 1.1v13c0 .6.5 1.1 1.1 1.1h4.7c.6 0 1.1.5 1.1 1.1V70c0 7.1 4.9 12.8 12.9 12.8 5.9 0 10.9-.9 13-1.9.5-.2.8-.6.8-1.1V69.3c0-.7-.6-1.2-1.3-1.1-2.5.4-7.9 1.5-7.9-5.1V48.5c0-.6.5-1.1 1.1-1.1h6.9c.6 0 1.1-.5 1.1-1.1v-13c.1-.7-.4-1.2-1.1-1.2"/><path id="XMLID_65_" class="st2" d="M133.4 18.6c0-.6.5-1.1 1.1-1.1h29.4c9.9 0 16.7 2.6 21 7 3.8 3.7 5.7 8.6 5.7 14.9v.2c0 9.3-4.7 15.6-12 19.1-.6.3-.9 1.1-.5 1.6l13.4 19.5c.5.7 0 1.8-.9 1.8h-17.7c-.5 0-1-.3-1.3-.7l-12-17.9c-.4-.5-1-.9-1.6-.9h-5.7c-.6 0-1.1.5-1.1 1.1v17.2c0 .6-.5 1.1-1.1 1.1h-15.6c-.6 0-1.1-.5-1.1-1.1V18.6zm29.7 29.6c6.1 0 9.6-2.9 9.6-7.6v-.2c0-5-3.7-7.6-9.7-7.6h-10.6c-.6 0-1.1.5-1.1 1.1V47c0 .6.5 1.1 1.1 1.1h10.7z"/><path id="XMLID_62_" class="st2" d="M220.1 31.1c-15.6 0-25.2 12.1-25.2 26.4 0 14.3 10.6 25.3 25.2 25.3 13.1 0 20.8-5.7 24.4-14.1.3-.7-.3-1.5-1.1-1.5H230c-.5 0-1 .2-1.4.6-1.7 1.8-3.9 3-7 3-5.7 0-10.2-2.9-10.2-7.8 0-.6.5-1.1 1.1-1.1h32c.6 0 1.1-.5 1.1-1.1v-3.2c.1-14.4-8.7-26.5-25.5-26.5m9.7 20.4c0 .6-.5 1.1-1.1 1.1h-15.6c-.6 0-1.1-.5-1.1-1.1 0-4.9 3.8-8.7 8.8-8.7 5.4 0 9 3.9 9 8.7z"/><path id="XMLID_61_" class="st2" d="M316.3 31c-6.8 0-11.7 2.8-15.9 7.2-.4.4-1.1.4-1.4-.1-2.8-4.5-7.6-7.1-13.8-7.1h-.7c-5.1.2-9.7 2.6-12.6 6.2-.5.6-1.6.3-1.6-.5v-3.5c0-.6-.5-1.1-1.1-1.1h-15.3c-.6 0-1.1.5-1.1 1.1v47.4c0 .6.5 1.1 1.1 1.1h15.3c.6 0 1.1-.5 1.1-1.1V54.8c0-5.4 3-8.3 7.1-8.3 4.2 0 6.8 2.8 6.8 8.3v25.9c0 .6.5 1.1 1.1 1.1h15.3c.6 0 1.1-.5 1.1-1.1V54.8c0-5.4 3-8.3 7.2-8.3s6.8 2.8 6.8 8.3v25.9c0 .6.5 1.1 1.1 1.1h15.3c.6 0 1.1-.5 1.1-1.1V49.2c.2-11.6-6.2-18.2-16.9-18.2"/><path id="XMLID_56_" class="st2" d="M96.9 1.7c-.6-.6-1.5-1-2.4-1H3.4C1.5.7 0 2.3 0 4.1v77c0 1.1.5 2.1 1.4 2.7l43.9 31.9c2.2 1.6 5.2 1.6 7.4 0l43.9-31.9c.9-.6 1.4-1.7 1.4-2.7v-77c-.1-.9-.4-1.7-1.1-2.4M86.3 7.5L69.2 19.9c-.5.4-1.2.4-1.8.1-7-4.5-16-4.7-23.2-.4-.2.1-.4.2-.6.4l-7.4 5.4L11.6 7.5h74.7zm4.4 68.6l-.1.4c-.1.8-.7 2-1.2 2.5-1.5 1.5-3.8 1.6-5.5.4L65.3 65.9l-.1-.1c-1.1-.8-3-.8-4 .1-1.5 1.4-1.3 3.7.3 4.8l.2.2 17.1 12.4c.9.7 1.7 1.7 1.8 2.9.2 1.6-.4 3.1-1.7 4.1l-.4.3a4.2 4.2 0 0 1-5 0L52.3 75.1c-1.1-.8-3-.8-4 .1-1.5 1.4-1.3 3.7.3 4.8l17.3 12.6c1 .7 1.7 1.7 1.8 2.9.2 1.6-.4 3.1-1.7 4.1l-.4.3a4.2 4.2 0 0 1-5 0l-3.9-2.8-17.3-12.6c-1.1-.8-3-.8-4 .1-1.5 1.4-1.3 3.7.3 4.8L53 102c1 .7 1.7 1.7 1.8 2.9.2 1.6-.4 3.1-1.7 4.1l-.4.3a4.1 4.1 0 0 1-4.5.3L6.8 79.4V12.3l18 13.1 5.7 4.1L20.2 37c-2.5 1.8-4.1 4.4-4.5 7.4-.5 3 .2 6 2 8.5s4.4 4.1 7.4 4.5c.6.1 1.2.1 1.8.1 2.4 0 4.7-.7 6.7-2.2L47.9 45c1.1-.8 2.6-.8 3.7 0l37.7 27.4c1.1.9 1.6 2.3 1.4 3.7m.5-10.8L53 37.6c-1.9-1.4-4.5-1.4-6.4 0L29.6 50c-1 .7-2.2 1-3.4.8-1.2-.2-2.3-.8-3-1.8-.7-1-1-2.2-.8-3.4.2-1.2.8-2.3 1.8-3l12.1-8.8 10.5-7.6c5.9-4.3 14-3.7 19.2 1.3 1.2 1.1 3 1.2 4.3.2l21-15.3v52.9z"/></g></svg>