<svg width="490" height="131" viewBox="0 0 490 131" xmlns="http://www.w3.org/2000/svg"><title>Logo_Full_Horizontal_RGB_Midnight</title><path d="M360.77 32.057h-15.283c-.625 0-1.13.505-1.13 1.123v47.412c0 .62.505 1.122 1.13 1.122h15.284c.626 0 1.13-.502 1.13-1.122V33.18c0-.618-.504-1.123-1.13-1.123m68.293-14.572H413.78c-.624 0-1.13.502-1.13 1.123v61.986a1.13 1.13 0 0 0 1.13 1.123h15.284a1.13 1.13 0 0 0 1.132-1.123V18.608c0-.62-.507-1.123-1.132-1.123m-75.958-9.629c-5.35 0-9.69 4.31-9.69 9.628 0 5.318 4.34 9.63 9.69 9.63 5.352 0 9.69-4.312 9.69-9.63 0-5.317-4.338-9.628-9.69-9.628M489.992 38.29v-5.092c0-.62-.507-1.123-1.13-1.123h-15.285c-.623 0-1.13.502-1.13 1.123V59.05c0 5.417-2.955 8.26-7.112 8.26-4.154 0-6.832-2.843-6.832-8.26V33.2c0-.62-.506-1.123-1.13-1.123h-15.285c-.625 0-1.128.502-1.128 1.123v25.85c0 10.195 1.46 15.032 3.196 17.322 3.024 4 7.515 6.445 13.423 6.445 5.326 0 9.006-2.466 12.27-5.014 1.036-.808 2.576-1.274 2.576.937v4.425c-.09 2.968-2.036 5.484-4.484 6.807-.058.03-.115.06-.175.087-1.178.598-2.5.952-3.92.91-.04 0-3.392-.03-5.208-.333-.677-.112-1.276.32-1.336.998l-1.14 13.124a1.14 1.14 0 0 0 .947 1.222c5.728.893 11.8.716 18.185-1.47C485.382 101.067 490 93.618 490 82.84V38.345c0-.015-.008-.04-.008-.057m-88.254-6.231h-6.892c-.625 0-1.13-.505-1.13-1.123V18.608c0-.62-.508-1.123-1.13-1.123h-15.283c-.626 0-1.133.503-1.133 1.123v12.324c0 .62-.505 1.125-1.13 1.125h-4.75c-.625 0-1.132.5-1.132 1.123v13.03c0 .623.507 1.124 1.132 1.124h4.75c.625 0 1.13.502 1.13 1.123v21.52c0 7.09 4.908 12.838 12.922 12.838 5.86 0 10.898-.91 12.99-1.912.457-.22.787-.586.787-1.078V69.28c0-.69-.616-1.21-1.304-1.108-2.525.375-7.85 1.523-7.85-5.144v-14.57c0-.622.505-1.124 1.13-1.124h6.892c.625 0 1.13-.5 1.13-1.123V33.18c0-.622-.505-1.123-1.13-1.123M163.094 48.178c6.076 0 9.575-2.927 9.575-7.594V40.4c0-5.03-3.683-7.593-9.67-7.593h-10.565c-.623 0-1.127.502-1.127 1.12V47.06c0 .617.504 1.118 1.127 1.118h10.66zm-29.65-29.624c0-.618.504-1.12 1.127-1.12h29.352c9.854 0 16.666 2.563 20.995 6.955 3.775 3.658 5.707 8.6 5.707 14.914v.18c0 9.29-4.725 15.614-12.047 19.13-.626.296-.856 1.06-.465 1.628l13.423 19.488a1.12 1.12 0 0 1-.93 1.754H172.93a1.52 1.52 0 0 1-1.265-.673l-11.957-17.867a1.932 1.932 0 0 0-1.61-.856h-5.663c-.623 0-1.127.5-1.127 1.118v17.16c0 .618-.506 1.12-1.128 1.12h-15.61a1.122 1.122 0 0 1-1.125-1.12v-61.81zM229.79 51.5c0 .617-.473 1.115-1.056 1.115h-15.616c-.582 0-1.055-.498-1.055-1.115 0-4.855 3.835-8.682 8.792-8.682 5.343 0 8.934 3.827 8.934 8.68v.002zm-9.696-20.436c-15.556 0-25.208 12.127-25.208 26.42 0 14.29 10.58 25.332 25.208 25.332 13.093 0 20.848-5.664 24.39-14.125.304-.73-.27-1.538-1.066-1.538H230.04c-.54 0-1.04.237-1.414.622-1.73 1.787-3.905 2.95-6.954 2.95 0 0-.014-.004-.023-.004l-.005.005c-5.692 0-10.187-2.95-10.187-7.8a1.12 1.12 0 0 1 1.12-1.117h.034l.005-.003h31.998a1.13 1.13 0 0 0 1.13-1.125v-3.197c0-14.292-8.884-26.42-25.65-26.42zm96.243-.091c-6.85 0-11.745 2.753-15.91 7.19a.87.87 0 0 1-1.38-.128c-2.797-4.51-7.63-7.062-13.83-7.062-.217 0-.44.002-.672.006-5.13.192-9.673 2.595-12.64 6.25-.517.637-1.55.285-1.55-.535V33.16a1.09 1.09 0 0 0-1.095-1.085h-15.322c-.624 0-1.13.502-1.13 1.123v47.394c0 .622.506 1.123 1.13 1.123h15.284c.625 0 1.132-.5 1.132-1.123V54.74c0-5.416 2.953-8.26 7.108-8.26 4.156 0 6.834 2.844 6.834 8.26v25.852c0 .622.505 1.123 1.13 1.123h15.284c.623 0 1.13-.5 1.13-1.123V54.74c0-5.416 3.048-8.26 7.202-8.26 4.155 0 6.835 2.844 6.835 8.26v25.852c0 .622.503 1.123 1.13 1.123h15.282c.622 0 1.13-.5 1.13-1.123v-31.45c0-11.562-6.463-18.17-17.083-18.17M91.17 65.27L53.002 37.54a5.49 5.49 0 0 0-6.45 0l-17.01 12.357a4.57 4.57 0 0 1-3.417.82 4.56 4.56 0 0 1-2.997-1.836 4.55 4.55 0 0 1-.82-3.415 4.564 4.564 0 0 1 1.835-2.997l12.06-8.763h.004l10.498-7.628c5.866-4.264 13.952-3.735 19.2 1.264 1.157 1.108 2.965 1.176 4.26.232l21-15.256V65.27zm-.482 10.84l-.055.365c-.128.8-.662 1.958-1.248 2.514-1.544 1.472-3.807 1.59-5.453.39l-18.63-13.547-.135-.097c-1.13-.822-2.974-.812-4.002.136a3.11 3.11 0 0 0 .26 4.82l.227.164L78.737 83.27c.95.692 1.652 1.715 1.813 2.883.225 1.612-.426 3.127-1.703 4.056l-.39.283a4.24 4.24 0 0 1-4.987 0L52.283 75.098c-1.13-.82-2.978-.81-4.004.136a3.11 3.11 0 0 0 .257 4.82L65.85 92.63c.953.694 1.652 1.718 1.812 2.885.23 1.615-.422 3.126-1.7 4.057l-.394.284a4.238 4.238 0 0 1-4.984 0l-3.86-2.806-17.33-12.59c-1.128-.82-2.975-.81-4 .138a3.106 3.106 0 0 0 .257 4.818l17.314 12.58c.952.69 1.65 1.715 1.814 2.88.225 1.615-.425 3.13-1.704 4.058l-.38.277a4.228 4.228 0 0 1-4.49.307L6.768 79.412V12.316L24.774 25.4l5.675 4.12-10.284 7.473a11.272 11.272 0 0 0-4.54 7.414 11.265 11.265 0 0 0 2.03 8.453 11.29 11.29 0 0 0 7.41 4.544c.602.096 1.204.142 1.8.142 2.382 0 4.694-.746 6.657-2.17l14.383-10.45a3.182 3.182 0 0 1 3.744 0l37.735 27.43a4.21 4.21 0 0 1 1.303 3.753zm-4.37-68.64L69.217 19.9c-.523.377-1.233.415-1.775.06a21.82 21.82 0 0 0-23.214-.35 3.53 3.53 0 0 0-.633.358l-7.39 5.37L11.62 7.472h74.7zm10.628-5.777a3.376 3.376 0 0 0-2.394-.99H3.384A3.383 3.383 0 0 0 0 4.087v77.05c0 1.082.52 2.1 1.393 2.736l43.855 31.873h.002a6.326 6.326 0 0 0 7.437 0L96.54 83.884a3.388 3.388 0 0 0 1.398-2.738V4.09c0-.898-.356-1.76-.992-2.395zM148.45 113.43c0-2.296-1.685-3.802-4.053-3.802h-5.777v7.57h5.777c2.368 0 4.054-1.506 4.054-3.767zm-14.028 16.435V105.93h10.55c5.023 0 7.786 3.41 7.786 7.5 0 4.056-2.8 7.464-7.787 7.464h-6.35v8.97h-4.198zm21.028 0v-17.33h3.767v2.51c1.328-1.65 3.408-2.942 5.633-2.942v3.732a5.18 5.18 0 0 0-1.148-.108c-1.615 0-3.732 1.077-4.485 2.332v11.805h-3.768m24.579-8.684c0-3.05-1.758-5.74-4.988-5.74-3.193 0-4.987 2.69-4.987 5.74 0 3.087 1.794 5.778 4.987 5.778 3.23 0 4.988-2.69 4.988-5.777zm-13.886 0c0-4.986 3.373-9.077 8.898-9.077 5.527 0 8.9 4.09 8.9 9.078 0 4.953-3.373 9.116-8.9 9.116-5.525 0-8.898-4.163-8.898-9.115zm42.198 8.685V118.56c0-1.864-.826-3.12-2.87-3.12-1.688 0-3.267 1.148-4.02 2.297v12.128h-3.768V118.56c0-1.864-.79-3.12-2.835-3.12-1.686 0-3.23 1.184-4.018 2.297v12.128h-3.77v-17.33h3.77v2.33c.752-1.04 3.013-2.762 5.668-2.762 2.583 0 4.162 1.292 4.736 3.158.97-1.543 3.266-3.157 5.885-3.157 3.157 0 4.987 1.722 4.987 5.238v12.525h-3.768m7.933-.002h3.768v-17.33h-3.768v17.33zm-.43-21.78a2.326 2.326 0 0 1 2.332-2.332 2.326 2.326 0 0 1 2.332 2.33 2.328 2.328 0 0 1-2.332 2.334 2.328 2.328 0 0 1-2.332-2.333zm7.607 19.483l1.722-2.69c1.22 1.255 3.623 2.404 5.848 2.404 2.26 0 3.444-.934 3.444-2.297 0-3.41-10.477-.97-10.477-7.644 0-2.833 2.44-5.237 6.817-5.237 2.943 0 5.167 1.04 6.71 2.404l-1.578 2.655c-1.04-1.148-2.943-2.08-5.132-2.08-1.973 0-3.193.932-3.193 2.152 0 3.05 10.476.754 10.476 7.643 0 3.086-2.547 5.42-7.212 5.42-2.978 0-5.633-.97-7.427-2.73m25.405-12.378c-3.192 0-4.7 2.475-4.843 4.556h9.76c-.107-2.046-1.507-4.557-4.916-4.557zm-8.754 5.99c0-5.022 3.66-9.077 8.79-9.077 5.204 0 8.505 3.947 8.505 9.4v.935h-13.347c.287 2.583 2.225 4.77 5.49 4.77 1.722 0 3.696-.68 4.952-1.936l1.722 2.475c-1.758 1.65-4.306 2.55-7.033 2.55-5.238 0-9.078-3.625-9.078-9.116zm18.838 6.388l1.723-2.69c1.22 1.255 3.623 2.404 5.848 2.404 2.26 0 3.445-.934 3.445-2.297 0-3.41-10.478-.97-10.478-7.644 0-2.833 2.44-5.237 6.818-5.237 2.942 0 5.167 1.04 6.71 2.404l-1.58 2.655c-1.04-1.148-2.94-2.08-5.13-2.08-1.974 0-3.193.932-3.193 2.152 0 3.05 10.477.754 10.477 7.643 0 3.086-2.548 5.42-7.212 5.42-2.978 0-5.634-.97-7.428-2.73m44.889-9.688c0-4.593-2.87-8.252-8.18-8.252h-4.738v16.54h4.7c5.204 0 8.218-3.73 8.218-8.288zm-17.116 11.985V105.93h8.9c7.498 0 12.522 4.953 12.522 11.95 0 7.068-5.025 11.985-12.488 11.985h-8.935zm32.366-14.675c-3.193 0-4.7 2.475-4.844 4.556h9.76c-.11-2.046-1.508-4.557-4.917-4.557zm-8.755 5.99c0-5.022 3.66-9.077 8.79-9.077 5.204 0 8.505 3.947 8.505 9.4v.935h-13.348c.287 2.583 2.225 4.77 5.49 4.77 1.722 0 3.696-.68 4.95-1.936l1.724 2.475c-1.76 1.65-4.307 2.55-7.034 2.55-5.24 0-9.078-3.625-9.078-9.116zm20.31 8.685h3.767V105.93h-3.767zm7.929 0h3.768v-17.33h-3.768v17.33zm-.43-21.78a2.326 2.326 0 0 1 2.332-2.332 2.326 2.326 0 0 1 2.33 2.33 2.328 2.328 0 0 1-2.33 2.334 2.328 2.328 0 0 1-2.333-2.333zm13.636 21.78l-7.07-17.33h4.056l5.058 12.988 5.06-12.99h4.018l-7.07 17.332h-4.053m19.771-14.675c-3.193 0-4.7 2.475-4.844 4.556h9.76c-.108-2.046-1.508-4.557-4.917-4.557zm-8.755 5.99c0-5.022 3.66-9.077 8.792-9.077 5.202 0 8.503 3.947 8.503 9.4v.935h-13.348c.287 2.583 2.225 4.77 5.49 4.77 1.723 0 3.696-.68 4.952-1.936l1.722 2.475c-1.76 1.65-4.306 2.55-7.034 2.55-5.238 0-9.078-3.625-9.078-9.116zm20.31 8.685v-17.33h3.768v2.51c1.327-1.65 3.408-2.942 5.633-2.942v3.732a5.185 5.185 0 0 0-1.15-.108c-1.614 0-3.73 1.077-4.484 2.332v11.805h-3.768m18.731-14.674c-3.193 0-4.7 2.475-4.844 4.556h9.76c-.108-2.046-1.507-4.557-4.916-4.557zm-8.755 5.99c0-5.022 3.66-9.077 8.79-9.077 5.204 0 8.505 3.947 8.505 9.4v.935H397.01c.287 2.583 2.225 4.77 5.49 4.77 1.722 0 3.696-.68 4.95-1.936l1.724 2.475c-1.758 1.65-4.306 2.55-7.033 2.55-5.237 0-9.077-3.625-9.077-9.116zm32.51 3.446v-6.854c-.825-1.292-2.69-2.332-4.45-2.332-3.014 0-4.916 2.405-4.916 5.74 0 3.374 1.902 5.778 4.916 5.778 1.76 0 3.625-1.04 4.45-2.332zm0 5.24v-2.37c-1.328 1.723-3.3 2.8-5.562 2.8-4.413 0-7.678-3.373-7.678-9.115 0-5.596 3.23-9.077 7.68-9.077 2.187 0 4.197.97 5.56 2.835v-9.007h3.768v23.935h-3.767z" fill="#212E61" fill-rule="evenodd"/></svg>